<?xml version="1.0" encoding="UTF-8"?>
<svg width="61px" height="93px" viewBox="0 0 61 93" version="1.1" xmlns="http://www.w3.org/2000/svg" xmlns:xlink="http://www.w3.org/1999/xlink">
    <!-- Generator: Sketch 48.2 (47327) - http://www.bohemiancoding.com/sketch -->
    <title>tap</title>
    <desc>Created with Sketch.</desc>
    <defs></defs>
    <g id="Landing" stroke="none" stroke-width="1" fill="none" fill-rule="evenodd" transform="translate(-921.000000, -3159.000000)">
        <g id="tap" transform="translate(921.000000, 3159.000000)" fill="#FFFFFF" fill-rule="nonzero">
            <path d="M51.5,59 C52.3279296,59 53,58.3279296 53,57.5 C53,56.6720704 52.3279296,56 51.5,56 C50.6720704,56 50,56.6720704 50,57.5 C50,58.3279296 50.6720704,59 51.5,59 Z" id="Shape"></path>
            <path d="M0.367720821,58.0461301 C1.54933312,62.8446273 3.41817204,67.458074 5.9228628,71.7576469 C8.42904258,76.0600669 11.5479933,80.0080441 15.1933458,83.492684 L15.2543994,83.5517578 L15.2543994,91.1779661 C15.2543994,92.1843552 16.107662,93 17.1604661,93 L51.4696665,93 C52.5224707,93 53.3757332,92.1843552 53.3757332,91.1779661 L53.3757332,83.341797 C58.3225719,76.0565081 61,67.5150125 61,58.7258342 L61,44.5338983 C61,40.5154594 57.5795039,37.2457627 53.3757332,37.2457627 C51.806951,37.2457627 50.3476186,37.7012712 49.1339903,38.4813294 C48.0908656,35.6429423 45.2608032,33.6016949 41.9393331,33.6016949 C40.3705508,33.6016949 38.9112185,34.0572034 37.6975902,34.8372617 C36.6544655,31.9988745 33.824403,29.9576271 30.5029329,29.9576271 C29.1426267,29.9576271 27.8374178,30.2978351 26.6907996,30.9334117 L26.6907996,14.2881356 C26.6907996,10.2618678 23.2792379,7 19.0665328,7 C14.8627622,7 11.442266,10.2696967 11.442266,14.2881356 L11.442266,40.5218651 L6.23334315,43.8413831 C1.3944652,46.9253178 -0.963547824,52.6334084 0.367720821,58.0461301 Z M8.34863039,46.8733614 L11.442266,44.901152 L11.442266,57.2881356 C11.442266,58.2945247 12.2955286,59.1101695 13.3483327,59.1101695 C14.4011368,59.1101695 15.2543994,58.2945247 15.2543994,57.2881356 C15.2543994,55.9600438 15.2543994,15.3870498 15.2543994,14.2881356 C15.2543994,12.2789161 16.9646475,10.6440678 19.0665328,10.6440678 C21.1721408,10.6440678 22.8786662,12.2753575 22.8786662,14.2881356 L22.8786662,50 C22.8786662,51.0063891 23.7319287,51.8220339 24.7847329,51.8220339 C25.837537,51.8220339 26.6907996,51.0063891 26.6907996,50 L26.6907996,37.2457627 C26.6907996,35.2329846 28.3973249,33.6016949 30.5029329,33.6016949 C32.6048182,33.6016949 34.3150663,35.2365433 34.3150663,37.2457627 L34.3150663,50 C34.3150663,51.0063891 35.1683289,51.8220339 36.221133,51.8220339 C37.2739371,51.8220339 38.1271997,51.0063891 38.1271997,50 L38.1271997,40.8898305 C38.1271997,38.8806111 39.8374478,37.2457627 41.9393331,37.2457627 C44.0412184,37.2457627 45.7514665,38.8806111 45.7514665,40.8898305 L45.7514665,50 C45.7514665,51.0063891 46.604729,51.8220339 47.6575332,51.8220339 C48.7103373,51.8220339 49.5635999,51.0063891 49.5635999,50 L49.5635999,44.5338983 C49.5635999,42.5246788 51.2738479,40.8898305 53.3757332,40.8898305 C55.4776185,40.8898305 57.1878666,42.5246788 57.1878666,44.5338983 L57.1878666,58.7258342 C57.1878666,66.8851298 54.6757302,74.9148902 49.8837596,81.7859507 C49.6752835,82.0855899 49.5635999,82.4371856 49.5635999,82.7966102 L49.5635999,89.3559322 L19.0665328,89.3559322 L19.0665328,82.7966102 C19.0665328,82.3133441 18.8655022,81.8500067 18.5081147,81.5083754 C18.1045648,81.0692366 13.3408872,77.0024001 9.25326756,69.9847226 C6.92056958,65.979095 5.17905001,61.6816571 4.07784971,57.2119802 C3.10992522,53.2732555 4.82612975,49.118164 8.34863039,46.8733614 Z" id="Shape"></path>
            <path d="M43.8782688,79.7078574 C44.7829206,80.2390112 46.0081306,80.0266854 46.6138003,79.2269021 C49.8879621,74.9057659 52.0278412,70.1247035 52.974104,65.0159946 C53.1490239,64.0696861 52.4192919,63.1769679 51.3443436,63.0229807 C50.2686247,62.8683153 49.2553223,63.5107197 49.0796316,64.4570282 C48.225067,69.0732497 46.2917012,73.3937074 43.3319332,77.299689 C42.727034,78.0974372 42.9720758,79.1753469 43.8782688,79.7078574 Z" id="Shape"></path>
            <path d="M4.875,16 C5.91064462,16 6.75,15.2041668 6.75,14.2222222 C6.75,8.34027769 11.7971192,3.55555556 18,3.55555556 C24.2036134,3.55555556 29.25,8.34027769 29.25,14.2222222 C29.25,15.2041668 30.0893554,16 31.125,16 C32.1606446,16 33,15.2041668 33,14.2222222 C33,6.37986116 26.2712402,0 18,0 C9.72875981,0 3,6.37986116 3,14.2222222 C3,15.2041668 3.83935538,16 4.875,16 Z" id="Shape"></path>
        </g>
    </g>
</svg>