<?xml version="1.0" encoding="UTF-8"?>
<svg width="98px" height="69px" viewBox="0 0 98 69" version="1.1" xmlns="http://www.w3.org/2000/svg" xmlns:xlink="http://www.w3.org/1999/xlink">
    <!-- Generator: Sketch 48.2 (47327) - http://www.bohemiancoding.com/sketch -->
    <title>binoculars</title>
    <desc>Created with Sketch.</desc>
    <defs></defs>
    <g id="Landing" stroke="none" stroke-width="1" fill="none" fill-rule="evenodd" transform="translate(-211.000000, -3174.000000)">
        <g id="binoculars" transform="translate(211.000000, 3174.000000)" fill-rule="nonzero">
            <g id="SVGCleanerId_0" transform="translate(37.000000, 23.000000)" fill="#FFFFFF">
                <path d="M22.4500364,0.171 L1.51636364,0.171 C0.694254545,0.171 0.0270545455,0.9355 0.0270545455,1.8775 C0.0270545455,2.8195 0.694254545,3.584 1.51636364,3.584 L22.4500364,3.584 C23.2730182,3.584 23.9393455,2.8195 23.9393455,1.8775 C23.9393455,0.9355 23.2721455,0.171 22.4500364,0.171 Z" id="Shape"></path>
            </g>
            <path d="M59.4888992,32 L39.5115437,32 C38.677161,32 38,32.6719895 38,33.5 C38,34.3280105 38.677161,35 39.5115437,35 L59.4884563,35 C60.3237248,35 61,34.3280105 61,33.5 C61,32.6719895 60.3232819,32 59.4888992,32 Z" id="Shape" fill="#FFFFFF"></path>
            <path d="M63.9804631,11.4007263 L56.3319774,8.99342428 C52.1216811,7.66885857 47.4858641,7.66885857 43.2755678,8.99342428 L36.0194866,11.2766709 C35.2160781,11.5291 34.8014449,12.2985573 35.0935934,12.9938169 C35.3852883,13.689469 36.2757971,14.0482874 37.0778447,13.7950731 L44.3339259,11.5118265 C47.8605764,10.4008244 51.7456079,10.4008244 55.2731657,11.5118265 L62.9216513,13.9191285 C63.096759,13.9740897 63.2745886,14 63.4510572,14 C64.0834409,14 64.6772646,13.662381 64.9063562,13.1174796 C65.1985048,12.42222 64.7843252,11.6539405 63.9804631,11.4007263 Z" id="Shape" fill="#FFFFFF"></path>
            <path d="M59.5052282,23 L38.4947718,23 C37.6696473,23 37,23.6719895 37,24.5 C37,25.3280105 37.6696473,26 38.4947718,26 L59.5052282,26 C60.3312287,26 61,25.3280105 61,24.5 C61,23.6719895 60.3303527,23 59.5052282,23 Z" id="Shape" fill="#FFFFFF"></path>
            <path d="M26.4701599,0 C21.2525086,0 17.0011543,4.19745369 16.9407607,9.37918635 L16.0154608,15.8296818 C15.8973186,16.6493289 16.4690737,17.4083915 17.2921014,17.5251704 C18.1129249,17.6437053 18.8773223,17.0734206 18.9945827,16.2542125 L19.9344301,9.70274282 C19.9441283,9.6324999 19.9494182,9.56181795 19.9494182,9.49069699 C19.9494182,5.91006397 22.8743183,2.99673872 26.4701599,2.99673872 C30.0655608,2.99673872 32.9909016,5.91050299 32.9909016,9.49069699 L32.9909016,19.5016306 C32.9909016,20.3287411 33.6649291,21 34.4954508,21 C35.3259725,21 36,20.3287411 36,19.5016306 L36,9.49069699 C36,4.25716018 31.7244001,0 26.4701599,0 Z" id="Shape" fill="#FCFCFC"></path>
            <path d="M18.7998861,16.7486395 C18.3870894,16.0337496 17.4696168,15.787719 16.7508493,16.1996671 C12.8110363,18.4599097 10.150058,22.3105961 9.44975422,26.7662904 C9.21060467,28.2928187 8.93892375,30.0229134 8.47601111,31.6369972 L8.05793901,33.093919 C7.83065902,33.8880464 8.29225282,34.7150072 9.08883183,34.9417757 C9.22599113,34.9811756 9.36490889,35 9.50162857,35 C10.1544541,35 10.7554053,34.5718541 10.9431201,33.9143131 L11.3611922,32.4573912 C11.8759792,30.66557 12.1626069,28.8382889 12.4153845,27.2272695 C12.9736932,23.6703315 15.0996623,20.5940726 18.2486113,18.789118 C18.9664995,18.3776076 19.2126829,17.4639671 18.7998861,16.7486395 Z" id="Shape" fill="#FFFFFF"></path>
            <path d="M24.1493258,14 C21.5490677,14 18.9904033,14.7115865 16.748726,16.0580288 C16.0337535,16.4873558 15.7876944,17.4410096 16.1996902,18.186851 C16.6112481,18.9326923 17.5254322,19.1884615 18.2404046,18.7595913 C20.0284925,17.686274 22.0713961,17.118101 24.1493258,17.118101 C30.6895944,17.118101 36.0113888,22.66875 36.0113888,29.4923077 L36.0113888,50.4411779 C36.0113888,51.3016587 36.6808272,52 37.5056944,52 C38.3305616,52 39,51.3025721 39,50.4411779 L39,29.4923077 C39.0004378,20.9500721 32.3380153,14 24.1493258,14 Z" id="Shape" fill="#FFFFFF"></path>
            <path d="M20,29 C8.97257341,29 0,37.971672 0,49 C0,60.028328 8.97257341,69 20,69 C31.0274266,69 40,60.028328 40,49 C40.0004507,37.971672 31.0278773,29 20,29 Z M20,65.9233543 C10.6681991,65.9233543 3.07664571,58.3318009 3.07664571,49 C3.07664571,39.6681991 10.6681991,32.0766457 20,32.0766457 C29.3318009,32.0766457 36.9233543,39.6681991 36.9233543,49 C36.9233543,58.3318009 29.3318009,65.9233543 20,65.9233543 Z" id="Shape" fill="#FFFFFF"></path>
            <path d="M20.5,33 C11.953271,33 5,39.728972 5,48 C5,56.271028 11.953271,63 20.5,63 C29.046729,63 36,56.271028 36,48 C36,39.728972 29.046729,33 20.5,33 Z M20.5,60.0002637 C13.6629801,60.0002637 8.09972754,54.6169103 8.09972754,48 C8.09972754,41.3830897 13.662526,35.9997363 20.5,35.9997363 C27.337474,35.9997363 32.9002725,41.3830897 32.9002725,48 C32.9002725,54.6169103 27.337474,60.0002637 20.5,60.0002637 Z" id="Shape" fill="#FFFFFF"></path>
            <path d="M15.8497934,40.8413283 C15.4983375,40.0902691 14.6471163,39.7837871 13.946697,40.162435 C11.6975453,41.3687625 9.97350036,43.4232612 9.09070625,45.9441649 C8.81568992,46.730416 9.18708659,47.6066517 9.920325,47.901997 C10.0840054,47.9679263 10.252671,48 10.4180132,48 C10.9921409,48 11.5326186,47.623134 11.7461509,47.0146247 C12.3771929,45.2118154 13.6093658,43.7453346 15.2166742,42.8820175 C15.9170935,42.505597 16.200003,41.5914965 15.8497934,40.8413283 Z" id="Shape" fill="#FFFFFF"></path>
            <path d="M79.9847147,15.7998736 L79.0795683,9.45011058 C79.0199902,4.22919431 74.7639044,0 69.5404461,0 C64.2803584,0 60,4.29023697 60,9.56246445 L60,19.4903002 C60,20.3236651 60.6747776,21 61.5062236,21 C62.3376697,21 63.0124473,20.3236651 63.012006,19.4903002 L63.012006,9.56246445 C63.012006,5.95475513 65.9401612,3.01939968 69.5400048,3.01939968 C73.1385245,3.01939968 76.067121,5.95519747 76.067121,9.56246445 C76.067121,9.63412322 76.0724169,9.70533965 76.0830085,9.77611374 L77.0036011,16.2276145 C77.1227574,17.052575 77.8946253,17.6271722 78.7079772,17.5081833 C79.5305969,17.3896367 80.1021057,16.6257188 79.9847147,15.7998736 Z" id="Shape" fill="#FFFFFF"></path>
            <path d="M89.9398644,33.3905048 L89.6509205,32.3710817 C89.1701034,30.6756971 88.8893243,28.943774 88.5913084,27.1086298 L88.5704428,26.9807452 C87.352524,19.4593029 80.9667284,14 73.3861476,14 C64.9024472,14 58,20.9500721 58,29.4923077 L58,50.4411779 C58,51.3016587 58.693556,52 59.5481404,52 C60.4027248,52 61.0962808,51.3025721 61.0958272,50.4411779 L61.0958272,29.4923077 C61.0958272,22.66875 66.6084407,17.118101 73.3852404,17.118101 C79.4399073,17.118101 84.5406511,21.4775962 85.5136253,27.4836058 L85.5335838,27.6114904 C85.8329605,29.4534856 86.1418628,31.3594231 86.6730296,33.2279087 L86.9619735,34.246875 C87.1964852,35.0749279 88.0533376,35.5554087 88.8757163,35.3179087 C89.6985486,35.0813221 90.1752833,34.2185577 89.9398644,33.3905048 Z" id="Shape" fill="#FFFFFF"></path>
            <path d="M78,29 C66.9712212,29 58,37.971672 58,49 C58,60.028328 66.971672,69 78,69 C89.028328,69 98,60.028328 98,49 C98,37.971672 89.0287788,29 78,29 Z M78,65.9233543 C68.6681991,65.9233543 61.0766457,58.3318009 61.0766457,49 C61.0766457,39.6681991 68.6681991,32.0766457 78,32.0766457 C87.3318009,32.0766457 94.9233543,39.6681991 94.9233543,49 C94.9233543,58.3318009 87.3318009,65.9233543 78,65.9233543 Z" id="Shape" fill="#FFFFFF"></path>
            <path d="M77.5,33 C68.953271,33 62,39.728972 62,48 C62,56.271028 68.953271,63 77.5,63 C86.046729,63 93,56.271028 93,48 C93,39.728972 86.046729,33 77.5,33 Z M77.5,60.0002637 C70.6629801,60.0002637 65.0997275,54.6169103 65.0997275,48 C65.0997275,41.3830897 70.662526,35.9997363 77.5,35.9997363 C84.337474,35.9997363 89.9002725,41.3830897 89.9002725,48 C89.9002725,54.6169103 84.3370199,60.0002637 77.5,60.0002637 Z" id="Shape" fill="#FFFFFF"></path>
            <path d="M74.8492817,40.8413283 C74.4982475,40.0902691 73.6462108,39.7837871 72.9462196,40.162435 C70.6971084,41.3696534 68.9730945,43.4241521 68.0911472,45.9441649 C67.8153049,46.730416 68.1866949,47.6066517 68.9199201,47.901997 C69.0844284,47.9679263 69.253091,48 69.4184302,48 C69.9921321,48 70.5321847,47.623134 70.7457132,47.0146247 C71.3767438,45.2118154 72.6088945,43.7453346 74.2161739,42.8820175 C74.9174114,42.505597 75.2003159,41.5914965 74.8492817,40.8413283 Z" id="Shape" fill="#FFFFFF"></path>
        </g>
    </g>
</svg>