<?xml version="1.0" encoding="UTF-8"?>
<svg width="95px" height="218px" viewBox="0 0 95 218" version="1.1" xmlns="http://www.w3.org/2000/svg" xmlns:xlink="http://www.w3.org/1999/xlink">
    <!-- Generator: Sketch 48.2 (47327) - http://www.bohemiancoding.com/sketch -->
    <title>Path 8</title>
    <desc>Created with Sketch.</desc>
    <defs></defs>
    <g id="HMIP-Process" stroke="none" stroke-width="1" fill="none" fill-rule="evenodd" transform="translate(-12.000000, -862.000000)">
        <path d="M77.577823,865 L51.0416386,879.200566 L29.9938422,893.178996 C12.2783224,932.436891 86.0301712,912.945952 77.577823,941.250378 C72.3352745,958.80613 21.4120877,942.616499 15.345085,968.747036 C13.1098726,978.37408 22.1673212,983.521479 29.9938422,984.295887 C60.7014713,987.334303 64.4301007,983.162153 86.2877624,990.245226 C93.1774656,992.477865 108.356806,1000.16206 102.801886,1010.91316 C100.823806,1014.74158 97.8990041,1018.47596 94.0674667,1020.42916 C89.8687228,1022.56955 37.0221942,1034.64598 51.0416386,1057.43198 C54.8686284,1063.65205 63.0956522,1065.64819 69.0000748,1069.93002 C69.7445825,1070.46993 70.5936818,1071.02952 70.9584648,1071.87547 C71.6614189,1073.50564 72.1294147,1077.26416 72.5047727,1079" id="Path-8" stroke="#979797" stroke-width="5"></path>
    </g>
</svg>