<?xml version="1.0" encoding="UTF-8"?>
<svg width="549px" height="194px" viewBox="0 0 549 194" version="1.1" xmlns="http://www.w3.org/2000/svg" xmlns:xlink="http://www.w3.org/1999/xlink">
    <!-- Generator: Sketch 48.2 (47327) - http://www.bohemiancoding.com/sketch -->
    <title>Path 10</title>
    <desc>Created with Sketch.</desc>
    <defs></defs>
    <g id="HMIP-Process" stroke="none" stroke-width="1" fill="none" fill-rule="evenodd" transform="translate(-61.000000, -1044.000000)">
        <path d="M64,1187.36947 C67.239676,1231.65508 137.131984,1248.05139 162.148871,1223.74828 C185.759047,1200.81174 201.900862,1158.31089 215.093451,1137.15903 C243.492294,1091.62679 278.699615,1057.17791 342.884673,1069.4556 C381.9324,1076.92488 396.962208,1101.19792 435.540611,1106.0704 C446.963902,1107.51317 468.649668,1107.23953 480.573209,1106.0704 C487.65492,1105.37603 501.416893,1099.07421 507.677489,1096.22965 C519.844117,1090.70163 523.078985,1088.10563 534.071308,1081.0737 C541.082116,1076.58879 549.203641,1070.00692 555.271752,1064.65174 C561.494618,1059.15998 571.904452,1055.85935 579.56754,1051.82588 C586.1361,1048.36851 601.380793,1048.2649 609,1047" id="Path-10" stroke="#979797" stroke-width="5"></path>
    </g>
</svg>