<?xml version="1.0" encoding="UTF-8"?>
<svg width="414px" height="103px" viewBox="0 0 414 103" version="1.1" xmlns="http://www.w3.org/2000/svg" xmlns:xlink="http://www.w3.org/1999/xlink">
    <!-- Generator: Sketch 48.2 (47327) - http://www.bohemiancoding.com/sketch -->
    <title>differently.</title>
    <desc>Created with Sketch.</desc>
    <defs></defs>
    <g id="Animation" stroke="none" stroke-width="1" fill="none" fill-rule="evenodd">
        <path d="M19.6601563,77.5625 C22.626968,77.5625 25.6894373,76.9244855 28.8476563,75.6484375 L28.8476563,37.1279297 C26.1041529,35.5009684 23.0416836,34.6875 19.6601563,34.6875 C18.4479106,34.6875 17.4270875,34.9825817 16.5976563,35.5727539 C15.768225,36.1629261 15.1461609,37.0242456 14.7314453,38.1567383 C14.3167297,39.2892309 14.0136728,40.4536073 13.8222656,41.6499023 C13.6308584,42.8461974 13.5192059,44.2578044 13.4873047,45.8847656 C13.3596999,53.0306347 13.3596999,58.693013 13.4873047,62.8720703 C13.5192059,64.9137472 13.6308584,66.7320884 13.8222656,68.3271484 C14.0136728,69.9222085 14.3247049,71.4614184 14.7553711,72.9448242 C15.1860373,74.4282301 15.8160766,75.5686809 16.6455078,76.3662109 C17.474939,77.163741 18.4798118,77.5625 19.6601563,77.5625 Z M16.5976563,87.6113281 C13.8860542,87.6113281 11.5174255,86.8457108 9.49169922,85.3144531 C7.46597294,83.7831955 5.90283753,81.7096485 4.80224609,79.09375 C3.70165465,76.4778515 2.88021104,73.7583149 2.33789063,70.9350586 C1.79557021,68.1118023 1.46061262,65.0732585 1.33300781,61.8193359 C1.26920541,60.3199795 1.26920541,56.6513964 1.33300781,50.8134766 C1.39681021,48.7079973 1.49251238,46.8019291 1.62011719,45.0952148 C1.74772199,43.3885006 1.96305187,41.6100353 2.26611328,39.7597656 C2.56917469,37.909496 2.95198336,36.2745839 3.41455078,34.8549805 C3.8771182,33.435377 4.49120711,32.0636459 5.25683594,30.7397461 C6.02246477,29.4158462 6.915685,28.3232465 7.93652344,27.4619141 C8.95736188,26.6005816 10.1855397,25.9147161 11.6210938,25.4042969 C13.0566478,24.8938777 14.6516839,24.6386719 16.40625,24.6386719 C17.7780017,24.6386719 19.0620057,24.822101 20.2583008,25.1889648 C21.4545958,25.5558287 22.5950467,26.1300417 23.6796875,26.9116211 C24.7643283,27.6932005 25.633623,28.3870412 26.2875977,28.9931641 C26.9415723,29.5992869 27.7949166,30.4606064 28.8476563,31.5771484 L28.8476563,1.04785156 L41.0976563,1.04785156 L41.0976563,86.75 L28.8476563,86.75 L28.8476563,81.1992188 C26.9973866,83.1132908 25.1152439,84.6604759 23.2011719,85.8408203 C21.2870998,87.0211648 19.0859499,87.6113281 16.5976563,87.6113281 Z M53.0605469,16.3125 L53.0605469,4.0625 L65.3105469,4.0625 L65.3105469,16.3125 L53.0605469,16.3125 Z M53.0605469,86.75 L53.0605469,25.5 L65.3105469,25.5 L65.3105469,86.75 L53.0605469,86.75 Z M80.2402344,86.75 L80.2402344,34.6875 L74.1152344,34.6875 L74.1152344,25.5 L80.2402344,25.5 L80.2402344,23.1552734 C80.2402344,20.5712761 80.3359365,18.3781015 80.5273438,16.5756836 C80.718751,14.7732657 81.1095348,13.0346763 81.699707,11.3598633 C82.2898793,9.68505022 83.0873973,8.34521987 84.0922852,7.34033203 C85.097173,6.33544419 86.4370033,5.53792613 88.1118164,4.94775391 C89.7866295,4.35758168 91.7883998,4.0625 94.1171875,4.0625 C96.095062,4.0625 98.6152191,4.25390434 101.677734,4.63671875 L101.677734,13.7285156 C101.358722,13.6966144 100.704758,13.6088874 99.7158203,13.465332 C98.7268831,13.3217766 98.0091168,13.25 97.5625,13.25 C95.5208231,13.25 94.1650424,13.8959896 93.4951172,15.1879883 C92.825192,16.4799869 92.4902344,18.3860551 92.4902344,20.90625 L92.4902344,25.5 L101.677734,25.5 L101.677734,34.6875 L92.4902344,34.6875 L92.4902344,86.75 L80.2402344,86.75 Z M108.28125,86.75 L108.28125,34.6875 L102.15625,34.6875 L102.15625,25.5 L108.28125,25.5 L108.28125,23.1552734 C108.28125,20.5712761 108.376952,18.3781015 108.568359,16.5756836 C108.759767,14.7732657 109.15055,13.0346763 109.740723,11.3598633 C110.330895,9.68505022 111.128413,8.34521987 112.133301,7.34033203 C113.138189,6.33544419 114.478019,5.53792613 116.152832,4.94775391 C117.827645,4.35758168 119.829415,4.0625 122.158203,4.0625 C124.136078,4.0625 126.656235,4.25390434 129.71875,4.63671875 L129.71875,13.7285156 C129.399738,13.6966144 128.745773,13.6088874 127.756836,13.465332 C126.767899,13.3217766 126.050132,13.25 125.603516,13.25 C123.561839,13.25 122.206058,13.8959896 121.536133,15.1879883 C120.866208,16.4799869 120.53125,18.3860551 120.53125,20.90625 L120.53125,25.5 L129.71875,25.5 L129.71875,34.6875 L120.53125,34.6875 L120.53125,86.75 L108.28125,86.75 Z M152.735352,87.6113281 C149.76854,87.6113281 147.192556,87.1009166 145.007324,86.0800781 C142.822092,85.0592397 141.083503,83.7273845 139.791504,82.0844727 C138.499505,80.4415608 137.454757,78.3361131 136.657227,75.7680664 C135.859697,73.2000197 135.309409,70.6320115 135.006348,68.0639648 C134.703286,65.4959181 134.519857,62.5052254 134.456055,59.0917969 C134.360351,56.412096 134.360351,53.7324353 134.456055,51.0527344 C134.551758,47.8626143 134.767088,45.0314251 135.102051,42.559082 C135.437013,40.0867389 136.019202,37.6862096 136.848633,35.3574219 C137.678064,33.0286342 138.754713,31.1145908 140.078613,29.6152344 C141.402513,28.1158779 143.141103,26.9116256 145.294434,26.0024414 C147.447765,25.0932572 149.959947,24.6386719 152.831055,24.6386719 C155.446953,24.6386719 157.75178,24.9816046 159.745605,25.6674805 C161.739431,26.3533563 163.398268,27.3901298 164.722168,28.777832 C166.046068,30.1655343 167.146643,31.7047442 168.023926,33.3955078 C168.901209,35.0862715 169.563149,37.1358929 170.009766,39.5444336 C170.456382,41.9529743 170.767414,44.3216029 170.942871,46.6503906 C171.118328,48.9791783 171.206055,51.658839 171.206055,54.6894531 L171.206055,56.125 L146.706055,56.125 L146.706055,61.1494141 C146.642252,62.3297585 146.634277,63.5499611 146.682129,64.8100586 C146.729981,66.070156 146.785807,67.306309 146.849609,68.5185547 C146.913412,69.7308003 147.088866,70.8872015 147.375977,71.987793 C147.663087,73.0883844 148.013995,74.0533813 148.428711,74.8828125 C148.843427,75.7122437 149.425615,76.3662085 150.175293,76.8447266 C150.924971,77.3232446 151.810216,77.5625 152.831055,77.5625 C154.107103,77.5625 155.159827,77.3152694 155.989258,76.8208008 C156.818689,76.3263322 157.432778,75.5846404 157.831543,74.5957031 C158.230308,73.6067659 158.509439,72.6178435 158.668945,71.6289062 C158.828451,70.639969 158.924153,69.3958408 158.956055,67.8964844 L158.956055,65.3125 L171.110352,65.3125 L171.110352,67.7529297 C170.823241,74.2926759 169.212254,79.2372879 166.277344,82.5869141 C163.342433,85.9365402 158.828481,87.6113281 152.735352,87.6113281 Z M146.706055,50 L158.860352,50 L158.860352,46.3154297 C158.82845,44.6884684 158.732748,43.2688863 158.573242,42.0566406 C158.413736,40.844395 158.134605,39.6321675 157.73584,38.4199219 C157.337075,37.2076762 156.722986,36.2825553 155.893555,35.6445313 C155.064123,35.0065072 154.0433,34.6875 152.831055,34.6875 C151.586908,34.6875 150.542159,35.0224576 149.696777,35.6923828 C148.851396,36.362308 148.229331,37.3273049 147.830566,38.5874023 C147.431801,39.8474998 147.15267,41.0836528 146.993164,42.2958984 C146.833658,43.5081441 146.737956,44.959627 146.706055,46.6503906 L146.706055,50 Z M180.058594,86.75 L180.058594,25.5 L192.308594,25.5 L192.308594,33.6826172 C193.552741,31.2581259 195.363107,29.144703 197.739746,27.3422852 C200.116386,25.5398673 202.75617,24.6386719 205.65918,24.6386719 C205.754883,24.6386719 206.408848,24.7024733 207.621094,24.8300781 L207.621094,38.3720703 C205.356108,37.4788367 203.091157,37.0322266 200.826172,37.0322266 C198.274076,37.0322266 196.216479,37.7978439 194.65332,39.3291016 C193.090161,40.8603592 192.308594,42.8860551 192.308594,45.40625 L192.308594,86.75 L180.058594,86.75 Z M230.063477,87.6113281 C227.096665,87.6113281 224.520681,87.1009166 222.335449,86.0800781 C220.150217,85.0592397 218.411628,83.7273845 217.119629,82.0844727 C215.82763,80.4415608 214.782882,78.3361131 213.985352,75.7680664 C213.187822,73.2000197 212.637534,70.6320115 212.334473,68.0639648 C212.031411,65.4959181 211.847982,62.5052254 211.78418,59.0917969 C211.688476,56.412096 211.688476,53.7324353 211.78418,51.0527344 C211.879883,47.8626143 212.095213,45.0314251 212.430176,42.559082 C212.765138,40.0867389 213.347327,37.6862096 214.176758,35.3574219 C215.006189,33.0286342 216.082838,31.1145908 217.406738,29.6152344 C218.730638,28.1158779 220.469228,26.9116256 222.622559,26.0024414 C224.77589,25.0932572 227.288072,24.6386719 230.15918,24.6386719 C232.775078,24.6386719 235.079905,24.9816046 237.07373,25.6674805 C239.067556,26.3533563 240.726393,27.3901298 242.050293,28.777832 C243.374193,30.1655343 244.474768,31.7047442 245.352051,33.3955078 C246.229334,35.0862715 246.891274,37.1358929 247.337891,39.5444336 C247.784507,41.9529743 248.095539,44.3216029 248.270996,46.6503906 C248.446453,48.9791783 248.53418,51.658839 248.53418,54.6894531 L248.53418,56.125 L224.03418,56.125 L224.03418,61.1494141 C223.970377,62.3297585 223.962402,63.5499611 224.010254,64.8100586 C224.058106,66.070156 224.113932,67.306309 224.177734,68.5185547 C224.241537,69.7308003 224.416991,70.8872015 224.704102,71.987793 C224.991212,73.0883844 225.34212,74.0533813 225.756836,74.8828125 C226.171552,75.7122437 226.75374,76.3662085 227.503418,76.8447266 C228.253096,77.3232446 229.138341,77.5625 230.15918,77.5625 C231.435228,77.5625 232.487952,77.3152694 233.317383,76.8208008 C234.146814,76.3263322 234.760903,75.5846404 235.159668,74.5957031 C235.558433,73.6067659 235.837564,72.6178435 235.99707,71.6289062 C236.156576,70.639969 236.252278,69.3958408 236.28418,67.8964844 L236.28418,65.3125 L248.438477,65.3125 L248.438477,67.7529297 C248.151366,74.2926759 246.540379,79.2372879 243.605469,82.5869141 C240.670558,85.9365402 236.156606,87.6113281 230.063477,87.6113281 Z M224.03418,50 L236.188477,50 L236.188477,46.3154297 C236.156575,44.6884684 236.060873,43.2688863 235.901367,42.0566406 C235.741861,40.844395 235.46273,39.6321675 235.063965,38.4199219 C234.6652,37.2076762 234.051111,36.2825553 233.22168,35.6445313 C232.392248,35.0065072 231.371425,34.6875 230.15918,34.6875 C228.915033,34.6875 227.870284,35.0224576 227.024902,35.6923828 C226.179521,36.362308 225.557456,37.3273049 225.158691,38.5874023 C224.759926,39.8474998 224.480795,41.0836528 224.321289,42.2958984 C224.161783,43.5081441 224.066081,44.959627 224.03418,46.6503906 L224.03418,50 Z M257.386719,86.75 L257.386719,25.5 L269.636719,25.5 L269.636719,32.1035156 C271.455087,30.4446532 272.938471,29.1765994 274.086914,28.2993164 C275.235357,27.4220334 276.822418,26.5926146 278.848145,25.8110352 C280.873871,25.0294557 283.035145,24.6386719 285.332031,24.6386719 C287.94793,24.6386719 290.069328,25.5956936 291.696289,27.5097656 C293.32325,29.4238377 294.136719,31.7685408 294.136719,34.5439453 L294.136719,86.75 L281.886719,86.75 L281.886719,40.8125 C281.886719,38.6751195 281.583662,37.1199593 280.977539,36.1469727 C280.371416,35.173986 279.143238,34.6875 277.292969,34.6875 C276.240229,34.6875 275.19548,34.9028299 274.158691,35.3334961 C273.121902,35.7641623 272.34831,36.1629213 271.837891,36.5297852 C271.327471,36.896649 270.593755,37.4788372 269.636719,38.2763672 L269.636719,86.75 L257.386719,86.75 Z M321.842773,87.6113281 C317.025692,87.6113281 313.524588,86.3831503 311.339355,83.9267578 C309.154123,81.4703653 308.029623,77.7539311 307.96582,72.7773438 L307.96582,34.6875 L301.84082,34.6875 L301.84082,25.5 L307.96582,25.5 L307.96582,4.0625 L320.21582,4.0625 L320.21582,25.5 L329.40332,25.5 L329.40332,34.6875 L320.21582,34.6875 L320.21582,70.4326172 C320.21582,72.8890097 320.550778,74.6914005 321.220703,75.8398438 C321.890628,76.988287 323.246409,77.5625 325.288086,77.5625 C326.18132,77.5625 327.553051,77.4029964 329.40332,77.0839844 L329.40332,87.0371094 C326.340805,87.4199238 323.820648,87.6113281 321.842773,87.6113281 Z M338.399414,86.75 L338.399414,1 L350.649414,1 L350.649414,86.75 L338.399414,86.75 Z M359.980469,102.0625 L359.980469,92.875 C362.40496,92.875 364.342929,92.7154964 365.794434,92.3964844 C367.245938,92.0774724 368.338538,91.5112345 369.072266,90.6977539 C369.805993,89.8842733 370.276529,88.991053 370.483887,88.0180664 C370.691245,87.0450798 370.794922,85.6972742 370.794922,83.9746094 L356.917969,25.5 L369.167969,25.5 C373.921248,51.7546886 376.489256,66.0462123 376.87207,68.375 C377.541996,64.0683378 378.299638,59.53046 379.14502,54.7612305 C379.990401,49.9920009 380.947423,44.7283817 382.016113,38.9702148 C383.084804,33.212048 383.906247,28.7220213 384.480469,25.5 L396.730469,25.5 L381.417969,89.8125 C380.39713,94.246767 378.243832,97.3969633 374.958008,99.2631836 C371.672184,101.129404 367.09443,102.0625 361.224609,102.0625 L359.980469,102.0625 Z M400.75,86.75 L400.75,74.5 L413,74.5 L413,86.75 L400.75,86.75 Z" id="differently." stroke="#FFFFFF"></path>
    </g>
</svg>