<?xml version="1.0" encoding="UTF-8"?>
<svg width="492px" height="232px" viewBox="0 0 492 232" version="1.1" xmlns="http://www.w3.org/2000/svg" xmlns:xlink="http://www.w3.org/1999/xlink">
    <!-- Generator: Sketch 48.2 (47327) - http://www.bohemiancoding.com/sketch -->
    <title>Path 5</title>
    <desc>Created with Sketch.</desc>
    <defs></defs>
    <g id="HMIP-Process" stroke="none" stroke-width="1" fill="none" fill-rule="evenodd" transform="translate(-324.000000, -504.000000)">
        <path d="M816,507 L788.13491,507 L766.255882,520.394139 C724.906828,551.863416 786.430818,628.575427 737.559139,645.913568 C727.969443,649.315691 723.47999,649.3511 712.376425,651.018224 C711.269,651.184496 697.812315,651.077596 696.537426,651.018224 C677.198791,650.117606 638.508423,625.043756 612.491949,625.043756 C595.653122,625.043756 580.190143,632.896705 564.298809,651.018224 C556.451624,659.96668 535.854206,686.214397 528.77091,695.96911 L506.788167,719.093215 C499.150101,723.74068 493.90681,726.596834 491.058292,727.661678 C488.209775,728.726521 477.109489,730.505962 457.757436,733 L414.61801,727.661678 L325,695.96911" id="Path-5" stroke="#979797" stroke-width="5"></path>
    </g>
</svg>