<?xml version="1.0" encoding="UTF-8"?>
<svg width="197px" height="214px" viewBox="0 0 197 214" version="1.1" xmlns="http://www.w3.org/2000/svg" xmlns:xlink="http://www.w3.org/1999/xlink">
    <!-- Generator: Sketch 48.2 (47327) - http://www.bohemiancoding.com/sketch -->
    <title>presentation</title>
    <desc>Created with Sketch.</desc>
    <defs></defs>
    <g id="HMIP-Process" stroke="none" stroke-width="1" fill="none" fill-rule="evenodd" transform="translate(-903.000000, -1268.000000)">
        <g id="presentation" transform="translate(903.000000, 1268.000000)" fill="#000000" fill-rule="nonzero">
            <ellipse id="Oval" cx="69.5" cy="69" rx="3.5" ry="4"></ellipse>
            <ellipse id="Oval" cx="69.5" cy="82" rx="3.5" ry="4"></ellipse>
            <ellipse id="Oval" cx="69.5" cy="97" rx="3.5" ry="4"></ellipse>
            <ellipse id="Oval" cx="69.5" cy="111" rx="3.5" ry="4"></ellipse>
            <ellipse id="Oval" cx="69.5" cy="125" rx="3.5" ry="4"></ellipse>
            <path d="M94.2173913,68.1481481 L94.2173913,89.7037037 L81.0869565,89.7037037 L81.0869565,53.7777778 L54.826087,53.7777778 L54.826087,75.3333333 L35.1304348,75.3333333 L35.1304348,132.814815 L25.2826087,132.814815 C23.4706087,132.814815 22,134.420704 22,136.407407 C22,138.394111 23.4706087,140 25.2826087,140 L35.1304348,140 L54.826087,140 L61.3913043,140 L74.5217391,140 L81.0869565,140 L94.2173913,140 L100.782609,140 L113.913043,140 L120.478261,140 L133.608696,140 L140.173913,140 L159.869565,140 L169.717391,140 C171.529391,140 173,138.394111 173,136.407407 C173,134.420704 171.529391,132.814815 169.717391,132.814815 L159.869565,132.814815 L159.869565,53.7777778 L140.173913,53.7777778 L140.173913,43 L113.913043,43 L113.913043,68.1481481 L94.2173913,68.1481481 Z M41.6956522,132.814815 L41.6956522,82.5185185 L54.826087,82.5185185 L54.826087,132.814815 L41.6956522,132.814815 Z M64.673913,132.814815 C64.673913,130.831704 63.2033043,129.222222 61.3913043,129.222222 L61.3913043,122.037037 C63.2033043,122.037037 64.673913,120.427556 64.673913,118.444444 C64.673913,116.461333 63.2033043,114.851852 61.3913043,114.851852 L61.3913043,107.666667 C63.2033043,107.666667 64.673913,106.057185 64.673913,104.074074 C64.673913,102.090963 63.2033043,100.481481 61.3913043,100.481481 L61.3913043,93.2962963 C63.2033043,93.2962963 64.673913,91.6868148 64.673913,89.7037037 C64.673913,87.7205926 63.2033043,86.1111111 61.3913043,86.1111111 L61.3913043,78.9259259 C63.2033043,78.9259259 64.673913,77.3164444 64.673913,75.3333333 C64.673913,73.3502222 63.2033043,71.7407407 61.3913043,71.7407407 L61.3913043,64.5555556 C63.2033043,64.5555556 64.673913,62.9460741 64.673913,60.962963 L71.2391304,60.962963 C71.2391304,62.9460741 72.7097391,64.5555556 74.5217391,64.5555556 L74.5217391,71.7407407 C72.7097391,71.7407407 71.2391304,73.3502222 71.2391304,75.3333333 C71.2391304,77.3164444 72.7097391,78.9259259 74.5217391,78.9259259 L74.5217391,86.1111111 C72.7097391,86.1111111 71.2391304,87.7205926 71.2391304,89.7037037 C71.2391304,91.6868148 72.7097391,93.2962963 74.5217391,93.2962963 L74.5217391,100.481481 C72.7097391,100.481481 71.2391304,102.090963 71.2391304,104.074074 C71.2391304,106.057185 72.7097391,107.666667 74.5217391,107.666667 L74.5217391,114.851852 C72.7097391,114.851852 71.2391304,116.461333 71.2391304,118.444444 C71.2391304,120.427556 72.7097391,122.037037 74.5217391,122.037037 L74.5217391,129.222222 C72.7097391,129.222222 71.2391304,130.831704 71.2391304,132.814815 L64.673913,132.814815 Z M81.0869565,132.814815 L81.0869565,96.8888889 L94.2173913,96.8888889 L94.2173913,132.814815 L81.0869565,132.814815 Z M100.782609,132.814815 L100.782609,89.7037037 L100.782609,75.3333333 L113.913043,75.3333333 L113.913043,132.814815 L100.782609,132.814815 Z M153.304348,60.962963 L153.304348,132.814815 L140.173913,132.814815 L140.173913,60.962963 L153.304348,60.962963 Z M120.478261,50.1851852 L133.608696,50.1851852 L133.608696,53.7777778 L133.608696,132.814815 L120.478261,132.814815 L120.478261,68.1481481 L120.478261,50.1851852 Z" id="Shape"></path>
            <path d="M197,14.2666667 L101.783333,14.2666667 L101.783333,3.56666667 C101.783333,1.5943 100.3124,0 98.5,0 C96.6876,0 95.2166667,1.5943 95.2166667,3.56666667 L95.2166667,14.2666667 L0,14.2666667 L0,164.066667 L90.5740333,164.066667 L50.2120167,207.9117 C48.9282333,209.306267 48.9282333,211.5604 50.2120167,212.954967 C50.8522667,213.650467 51.6928,214 52.5333333,214 C53.3738667,214 54.2144,213.650467 54.85465,212.954967 L95.2166667,169.109933 L95.2166667,203.3 C95.2166667,205.272367 96.6876,206.866667 98.5,206.866667 C100.3124,206.866667 101.783333,205.272367 101.783333,203.3 L101.783333,169.109933 L142.14535,212.954967 C142.7856,213.650467 143.626133,214 144.466667,214 C145.3072,214 146.147733,213.650467 146.787983,212.954967 C148.071767,211.5604 148.071767,209.306267 146.787983,207.9117 L106.425967,164.066667 L197,164.066667 L197,14.2666667 Z M190.433333,156.933333 L6.56666667,156.933333 L6.56666667,21.4 L190.433333,21.4 L190.433333,156.933333 Z" id="Shape"></path>
        </g>
    </g>
</svg>