<?xml version="1.0" encoding="UTF-8"?>
<svg width="771px" height="295px" viewBox="0 0 771 295" version="1.1" xmlns="http://www.w3.org/2000/svg" xmlns:xlink="http://www.w3.org/1999/xlink">
    <!-- Generator: Sketch 48.2 (47327) - http://www.bohemiancoding.com/sketch -->
    <title>Path 12</title>
    <desc>Created with Sketch.</desc>
    <defs></defs>
    <g id="HMIP-Process" stroke="none" stroke-width="1" fill="none" fill-rule="evenodd" transform="translate(-362.000000, -1491.000000)">
        <path d="M997.761373,1492 C992.318153,1506.80013 988.119552,1513.16111 989.912603,1529.28014 C993.197652,1558.81182 1054.60149,1587.08771 1079.18507,1598.40728 C1100.08798,1608.03208 1136.39929,1613.08882 1129.02821,1641.00525 C1122.77647,1664.68238 1059.84691,1660.41746 1047.63101,1659.65685 C969.632021,1654.80032 894.644721,1628.75388 816.163835,1626.72137 C784.245165,1625.89473 706.68713,1611.30542 713.483269,1661.62624 C714.371207,1668.20083 726.49756,1680.88145 728.783336,1683.4095 C738.432816,1694.08177 741.68449,1691.80643 757.337808,1702.96047 C771.273653,1712.8907 777.063247,1734.38371 763.156815,1745.64146 C759.422847,1748.66423 755.21657,1751.42365 750.511868,1753.13623 C742.324597,1756.1165 733.667672,1758.2024 724.930496,1759.55636 C713.563065,1761.31792 701.996405,1762.32121 690.451024,1762.44358 C611.144227,1763.28411 531.823739,1761.96209 452.512991,1762.44358 C449.717458,1762.46055 446.373704,1762.23326 443.588568,1762.44358 C439.743111,1762.73396 436.526396,1763.35957 432.724127,1763.93792 C427.102239,1764.79304 421.586243,1766.28822 416.316435,1768.19495 C411.055089,1770.09861 406.448162,1773.17708 401.302549,1775.30691 C398.06376,1776.64748 394.707249,1777.8431 391.222629,1778.58154 C382.572196,1780.41471 371.225158,1781.86926 362.484281,1783.34208" id="Path-12" stroke="#979797" stroke-width="5"></path>
    </g>
</svg>