<?xml version="1.0" encoding="UTF-8"?>
<svg width="188px" height="188px" viewBox="0 0 188 188" version="1.1" xmlns="http://www.w3.org/2000/svg" xmlns:xlink="http://www.w3.org/1999/xlink">
    <!-- Generator: Sketch 48.2 (47327) - http://www.bohemiancoding.com/sketch -->
    <title>growth</title>
    <desc>Created with Sketch.</desc>
    <defs></defs>
    <g id="HMIP-Process" stroke="none" stroke-width="1" fill="none" fill-rule="evenodd" transform="translate(-131.000000, -493.000000)">
        <g id="growth" transform="translate(131.000000, 493.000000)" fill="#000000" fill-rule="nonzero">
            <path d="M165.838995,32.9205932 L159.578593,14.1479151 C159.036286,12.5072612 157.265766,11.6167323 155.624367,12.1587934 C155.477638,12.2072895 155.334432,12.2667363 155.196312,12.3363516 L136.415106,21.7226907 C134.868004,22.4951082 134.240007,24.3751137 135.012776,25.921513 C135.785544,27.4679124 137.666404,28.0956238 139.213505,27.3232063 L149.443002,22.2107803 C122.523274,71.4202272 73.4292019,102.742441 22,102.742441 L22,109 C76.3966324,109 128.23276,75.5721178 156.000773,23.2401488 L159.891613,34.8979819 C160.437833,36.539418 162.212266,37.4276003 163.854447,36.8816283 C165.496629,36.3356562 166.385215,34.5620292 165.838995,32.9205932 Z" id="Shape"></path>
            <path d="M184.866667,0 L3.13333333,0 C1.40295,0 0,1.40293938 0,3.13330961 L0,144.132242 C0,145.862612 1.40295,147.265552 3.13333333,147.265552 L58.4241333,147.265552 L47.1441333,183.944074 C46.6353583,185.598461 47.564,187.35194 49.2184,187.860711 C50.8728,188.369482 52.6262917,187.440847 53.1350667,185.78646 L59.1980667,166.065409 L128.801933,166.065409 L134.8712,185.78646 C135.379975,187.440847 137.133467,188.369482 138.787867,187.860711 C140.442267,187.35194 141.370908,185.598461 140.862133,183.944074 L129.575867,147.265552 L184.866667,147.265552 C186.59705,147.265552 188,145.862612 188,144.132242 L188,3.13330961 C188,1.40293938 186.59705,0 184.866667,0 Z M61.1250667,159.79879 L64.9822,147.265552 L123.0178,147.265552 L126.874933,159.79879 L61.1250667,159.79879 Z M181.733333,140.998932 L6.26666667,140.998932 L6.26666667,6.26661921 L181.733333,6.26661921 L181.733333,140.998932 Z" id="Shape"></path>
            <path d="M37.8333333,116 L25.1666667,116 C23.417875,116 22,117.417875 22,119.166667 L22,131.833333 C22,133.582125 23.417875,135 25.1666667,135 L37.8333333,135 C39.582125,135 41,133.582125 41,131.833333 L41,119.166667 C41,117.417875 39.582125,116 37.8333333,116 Z M34.6666667,128.666667 L28.3333333,128.666667 L28.3333333,122.333333 L34.6666667,122.333333 L34.6666667,128.666667 Z" id="Shape"></path>
            <path d="M68.8333333,110 L56.1666667,110 C54.417875,110 53,111.399219 53,113.125 L53,131.875 C53,133.600781 54.417875,135 56.1666667,135 L68.8333333,135 C70.582125,135 72,133.600781 72,131.875 L72,113.125 C72,111.399219 70.582125,110 68.8333333,110 Z M65.6666667,128.75 L59.3333333,128.75 L59.3333333,116.25 L65.6666667,116.25 L65.6666667,128.75 Z" id="Shape"></path>
            <path d="M100.833333,97 L88.1666667,97 C86.417875,97 85,98.3805625 85,100.083333 L85,130.916667 C85,132.619438 86.417875,134 88.1666667,134 L100.833333,134 C102.582125,134 104,132.619438 104,130.916667 L104,100.083333 C104,98.3805625 102.582125,97 100.833333,97 Z M97.6666667,127.833333 L91.3333333,127.833333 L91.3333333,103.166667 L97.6666667,103.166667 L97.6666667,127.833333 Z" id="Shape"></path>
            <path d="M131.833333,78 L119.166667,78 C117.417875,78 116,79.393 116,81.1111111 L116,130.888889 C116,132.607 117.417875,134 119.166667,134 L131.833333,134 C133.582125,134 135,132.607 135,130.888889 L135,81.1111111 C135,79.393 133.582125,78 131.833333,78 Z M128.666667,127.777778 L122.333333,127.777778 L122.333333,84.2222222 L128.666667,84.2222222 L128.666667,127.777778 Z" id="Shape"></path>
            <path d="M162.833333,44 L150.166667,44 C148.417875,44 147,45.4050086 147,47.137931 L147,131.862069 C147,133.594991 148.417875,135 150.166667,135 L162.833333,135 C164.582125,135 166,133.594991 166,131.862069 L166,47.137931 C166,45.4050086 164.582125,44 162.833333,44 Z M159.666667,128.724138 L153.333333,128.724138 L153.333333,50.2758621 L159.666667,50.2758621 L159.666667,128.724138 Z" id="Shape"></path>
        </g>
    </g>
</svg>