<?xml version="1.0" encoding="UTF-8"?>
<svg width="134px" height="102px" viewBox="0 0 134 102" version="1.1" xmlns="http://www.w3.org/2000/svg" xmlns:xlink="http://www.w3.org/1999/xlink">
    <!-- Generator: Sketch 48.2 (47327) - http://www.bohemiancoding.com/sketch -->
    <title>gears</title>
    <desc>Created with Sketch.</desc>
    <defs></defs>
    <g id="Landing" stroke="none" stroke-width="1" fill="none" fill-rule="evenodd" transform="translate(-427.000000, -3152.000000)">
        <g id="gears" transform="translate(421.000000, 3146.000000)">
            <g id="settings" transform="translate(28.500000, 28.500000) rotate(-18.000000) translate(-28.500000, -28.500000) translate(6.000000, 6.000000)">
                <path d="M22.0909091,10.6363636 C15.7745455,10.6363636 10.6363636,15.7745455 10.6363636,22.0909091 C10.6363636,28.4072727 15.7745455,33.5454545 22.0909091,33.5454545 C28.4072727,33.5454545 33.5454545,28.4072727 33.5454545,22.0909091 C33.5454545,15.7745455 28.4072727,10.6363636 22.0909091,10.6363636 Z M22.0909091,31.9090909 C16.677,31.9090909 12.2727273,27.5048182 12.2727273,22.0909091 C12.2727273,16.677 16.677,12.2727273 22.0909091,12.2727273 C27.5048182,12.2727273 31.9090909,16.677 31.9090909,22.0909091 C31.9090909,27.5048182 27.5048182,31.9090909 22.0909091,31.9090909 Z" id="Shape" fill="#FEFEFE" fill-rule="nonzero"></path>
                <path d="M41.9072727,17.1818182 L40.2561818,17.1818182 C39.8348182,15.6174545 39.2154545,14.1201818 38.4070909,12.717 L39.5738182,11.5502727 C40.0033636,11.1207273 40.2398182,10.5488182 40.2398182,9.94172727 C40.2398182,9.33381818 40.0033636,8.76272727 39.5738182,8.33236364 L35.8486364,4.60718182 C34.9895455,3.74890909 33.4914545,3.74727273 32.6307273,4.60718182 L31.464,5.77390909 C30.06,4.96636364 28.5635455,4.347 27,3.92563636 L27,2.27454545 C27,1.02027273 25.9797273,0 24.7254545,0 L19.4563636,0 C18.2020909,0 17.1818182,1.02027273 17.1818182,2.27454545 L17.1818182,3.92563636 C15.6182727,4.347 14.1218182,4.96636364 12.717,5.77472727 L11.5502727,4.608 C10.6903636,3.74727273 9.19145455,3.74890909 8.33236364,4.608 L4.60718182,8.33318182 C4.17763636,8.76272727 3.94118182,9.33463636 3.94118182,9.94254545 C3.94118182,10.5496364 4.17763636,11.1207273 4.60718182,11.5510909 L5.77390909,12.7178182 C4.96636364,14.1201818 4.34618182,15.6174545 3.92563636,17.1818182 L2.27454545,17.1818182 C1.02027273,17.1818182 0,18.2020909 0,19.4563636 L0,24.7246364 C0,25.9797273 1.02027273,27 2.27454545,27 L3.92563636,27 C4.347,28.5635455 4.96636364,30.06 5.77472727,31.4648182 L4.608,32.6315455 C4.17845455,33.0610909 3.942,33.633 3.942,34.2400909 C3.942,34.848 4.17845455,35.4190909 4.608,35.8494545 L8.33318182,39.5746364 C9.19227273,40.4345455 10.6911818,40.4353636 11.5510909,39.5746364 L12.7178182,38.4079091 C14.1226364,39.2154545 15.6190909,39.8356364 17.1826364,40.257 L17.1826364,41.9080909 C17.1826364,43.1623636 18.2029091,44.1826364 19.4571818,44.1826364 L24.7254545,44.1826364 C25.9797273,44.1826364 27,43.1623636 27,41.9080909 L27,40.257 C28.5635455,39.8356364 30.06,39.2162727 31.4648182,38.4079091 L32.6315455,39.5746364 C33.4922727,40.4353636 34.9895455,40.4337273 35.8494545,39.5746364 L39.5746364,35.8494545 C40.0041818,35.4199091 40.2406364,34.848 40.2406364,34.2400909 C40.2406364,33.633 40.0041818,33.0619091 39.5746364,32.6315455 L38.4079091,31.4648182 C39.2154545,30.06 39.8356364,28.5635455 40.257,27 L41.9080909,27 C43.1623636,27 44.1826364,25.9797273 44.1826364,24.7254545 L44.1826364,19.4563636 C44.1818182,18.2020909 43.1615455,17.1818182 41.9072727,17.1818182 Z M42.5454545,24.7254545 C42.5454545,25.0772727 42.2590909,25.3636364 41.9072727,25.3636364 L38.9683636,25.3636364 L38.8210909,25.9960909 C38.3948182,27.8263636 37.6764545,29.5633636 36.6831818,31.1596364 L36.3395455,31.7110909 L38.4169091,33.7884545 C38.6664545,34.038 38.6664545,34.443 38.4169091,34.6917273 L34.6917273,38.4169091 C34.443,38.6656364 34.038,38.6672727 33.7884545,38.4169091 L31.7110909,36.3395455 L31.1596364,36.6831818 C29.5641818,37.6764545 27.8271818,38.3956364 25.9960909,38.8210909 L25.3636364,38.9683636 L25.3636364,41.9072727 C25.3636364,42.2590909 25.0772727,42.5454545 24.7254545,42.5454545 L19.4563636,42.5454545 C19.1045455,42.5454545 18.8181818,42.2590909 18.8181818,41.9072727 L18.8181818,38.9683636 L18.1857273,38.8210909 C16.3554545,38.3948182 14.6184545,37.6764545 13.0221818,36.6831818 L12.4707273,36.3395455 L10.3933636,38.4169091 C10.143,38.6672727 9.738,38.6656364 9.49009091,38.4169091 L5.76490909,34.6917273 C5.51536364,34.4421818 5.51536364,34.0371818 5.76490909,33.7884545 L7.84227273,31.7110909 L7.49863636,31.1596364 C6.50536364,29.5641818 5.78618182,27.8271818 5.36072727,25.9960909 L5.21345455,25.3636364 L2.27454545,25.3636364 C1.92272727,25.3636364 1.63636364,25.0772727 1.63636364,24.7254545 L1.63636364,19.4563636 C1.63636364,19.1045455 1.92272727,18.8181818 2.27454545,18.8181818 L5.21345455,18.8181818 L5.36072727,18.1857273 C5.787,16.3546364 6.50536364,14.6176364 7.49863636,13.0221818 L7.84227273,12.4707273 L5.76490909,10.3933636 C5.51536364,10.1438182 5.51536364,9.73881818 5.76490909,9.49009091 L9.49009091,5.76490909 C9.73881818,5.51618182 10.1438182,5.51454545 10.3933636,5.76490909 L12.4707273,7.84227273 L13.0221818,7.49863636 C14.6176364,6.50536364 16.3546364,5.78618182 18.1857273,5.36072727 L18.8181818,5.21345455 L18.8181818,2.27454545 C18.8181818,1.92272727 19.1045455,1.63636364 19.4563636,1.63636364 L24.7246364,1.63636364 C25.0772727,1.63636364 25.3636364,1.92272727 25.3636364,2.27454545 L25.3636364,5.21345455 L25.9960909,5.36072727 C27.8263636,5.787 29.5633636,6.50536364 31.1596364,7.49863636 L31.7110909,7.84227273 L33.7884545,5.76490909 C34.0388182,5.51454545 34.4438182,5.51618182 34.6917273,5.76490909 L38.4169091,9.49009091 C38.6664545,9.73963636 38.6664545,10.1446364 38.4169091,10.3933636 L36.3395455,12.4707273 L36.6831818,13.0221818 C37.6764545,14.6168182 38.3956364,16.3538182 38.8210909,18.1857273 L38.9683636,18.8181818 L41.9072727,18.8181818 C42.2590909,18.8181818 42.5454545,19.1045455 42.5454545,19.4563636 L42.5454545,24.7254545 Z" id="Shape" fill="#FFFFFF" fill-rule="nonzero"></path>
                <path d="M22.0909091,13.9090909 C17.5794545,13.9090909 13.9090909,17.5794545 13.9090909,22.0909091 C13.9090909,26.6023636 17.5794545,30.2727273 22.0909091,30.2727273 C26.6023636,30.2727273 30.2727273,26.6023636 30.2727273,22.0909091 C30.2727273,17.5794545 26.6023636,13.9090909 22.0909091,13.9090909 Z M22.0909091,28.6363636 C18.4819091,28.6363636 15.5454545,25.6999091 15.5454545,22.0909091 C15.5454545,18.4819091 18.4819091,15.5454545 22.0909091,15.5454545 C25.6999091,15.5454545 28.6363636,18.4819091 28.6363636,22.0909091 C28.6363636,25.6999091 25.6999091,28.6363636 22.0909091,28.6363636 Z" id="Shape" fill="#FFFFFF" fill-rule="nonzero"></path>
            </g>
            <g id="settings-(1)" transform="translate(32.000000, 34.000000)" fill="#FFFFFF">
                <path d="M75.9051279,29.2320869 L70.2899534,28.3509505 C69.7050393,26.6041362 68.953007,24.919156 68.0338564,23.3114686 L71.3427986,19.0294548 C72.7465922,17.2053478 72.5293385,14.7165239 70.8080201,13.1397535 L65.827895,8.53311051 C64.8920325,7.66743263 63.6553572,7.18821809 62.3351227,7.18821809 C61.2989893,7.18821809 60.3129914,7.48193023 59.4773999,8.03843743 L54.8315114,11.0992271 C53.0266339,10.2180907 51.1381972,9.49153959 49.1829132,8.95049091 L48.2470507,3.81825778 C47.8459668,1.60768749 45.7904118,0 43.3671966,0 L36.3315165,0 C33.9083013,0 31.8527463,1.60768749 31.4516624,3.81825778 L30.4823763,9.07415918 C28.6106515,9.61520785 26.7890621,10.3263004 25.0510319,11.1919783 L20.4552789,8.13118864 C19.6196874,7.57468143 18.6169777,7.28096929 17.5808443,7.28096929 C16.2606098,7.28096929 15.0072226,7.76018383 14.088072,8.62586171 L9.09123505,13.2325047 C7.38662848,14.8092751 7.15266287,17.298099 8.55645652,19.122206 L11.8988223,23.4660539 C10.9796717,25.0891999 10.2443513,26.7741801 9.67614907,28.5209944 L4.1278218,29.3866722 C1.73803023,29.757677 0,31.6590767 0,33.900564 L0,40.4086066 C0,42.650094 1.73803023,44.5514936 4.1278218,44.9224984 L9.8098437,45.8190934 C10.3947577,47.5504491 11.1635019,49.2354293 12.0993643,50.8431168 L8.80713396,55.078755 C7.40334031,56.9028619 7.62059409,59.3916858 9.34191249,60.9684562 L14.3220376,65.5750992 C15.2579,66.4407771 16.4945754,66.9199916 17.8148099,66.9199916 C18.8509433,66.9199916 19.8369412,66.6262795 20.6725326,66.0697723 L25.3685566,62.9780656 C27.0564514,63.7973679 28.8279053,64.4620848 30.6494946,64.987675 L31.5853571,70.1817422 C31.986441,72.3923125 34.041996,74 36.4652112,74 L43.5176031,74 C45.9408183,74 47.9963733,72.3923125 48.3974572,70.1817422 L49.3500314,64.987675 C51.2384681,64.4466263 53.0600575,63.7509923 54.7980877,62.9007729 L59.4272644,65.9615626 C60.2628559,66.5180698 61.2655656,66.8117819 62.301699,66.8117819 C63.6219335,66.8117819 64.8586089,66.3325674 65.7944713,65.4668895 L70.7745964,60.8602465 C72.479203,59.2834761 72.7131686,56.7946522 71.3093749,54.9705452 L68.0004328,50.6730729 C68.9195834,49.0499269 69.6883275,47.3649467 70.2565297,45.633591 L75.8717043,44.7679131 C78.2614958,44.3969083 79.9995261,42.4955087 79.9995261,40.2540213 L79.9995261,33.7459787 C80.0329497,31.5044913 78.2949195,29.6030917 75.9051279,29.2320869 Z M75.5207559,40.2540213 C75.5207559,40.4549822 75.3703494,40.6250261 75.1530956,40.6559432 L68.1341274,41.7380405 C67.2484004,41.8771673 66.5465036,42.4800501 66.3292498,43.2684353 C65.6942003,45.5408398 64.7249142,47.720493 63.4213916,49.7455609 C62.9701722,50.4566534 63.0035958,51.3377898 63.5216626,52.0179653 L67.6494843,57.397535 C67.7664672,57.5521203 67.7497553,57.7839983 67.5993489,57.9231251 L62.6192238,62.5297681 C62.502241,62.6379779 62.3852582,62.6534364 62.301699,62.6534364 C62.201428,62.6534364 62.1178689,62.6225193 62.0510216,62.5761437 L56.2520169,58.7578859 C55.5334082,58.2786714 54.5641221,58.2477543 53.795378,58.6651347 C51.6061284,59.8709004 49.2497605,60.7674953 46.7931216,61.3549196 C45.9241065,61.5558805 45.2723451,62.2205975 45.1386505,63.0244412 L43.9521106,69.5170253 C43.918687,69.7179862 43.7348569,69.857113 43.5176031,69.857113 L36.481923,69.857113 C36.2646692,69.857113 36.0808391,69.7179862 36.0474154,69.5170253 L34.8775874,63.0244412 C34.7271809,62.2051389 34.0754196,61.5558805 33.2231163,61.3549196 C30.8333248,60.7829538 28.5270923,59.9018174 26.3712664,58.7578859 C26.020318,58.5723835 25.6192341,58.4796323 25.234862,58.4796323 C24.7836426,58.4796323 24.3157114,58.6033006 23.9313393,58.8660957 L18.0821991,62.7152705 C17.99864,62.7616461 17.9150808,62.7925632 17.8315217,62.7925632 C17.7646744,62.7925632 17.6309797,62.7771047 17.5139969,62.6688949 L12.5338719,58.0622519 C12.3834654,57.9231251 12.3667536,57.7067057 12.4837364,57.5366618 L16.5948463,52.2034677 C17.112913,51.5232922 17.1463367,50.6266973 16.6951173,49.9156048 C15.3915946,47.9059954 14.3888849,45.7263422 13.7538354,43.4539377 C13.5198698,42.6655525 12.8179729,42.0626697 11.9489578,41.9235429 L4.87985411,40.8105285 C4.66260033,40.7796114 4.51219387,40.6095676 4.51219387,40.4086066 L4.51219387,33.900564 C4.51219387,33.6996031 4.66260033,33.5295592 4.87985411,33.4986422 L11.8486869,32.4165448 C12.7344138,32.277418 13.4530225,31.6745352 13.6702762,30.8706915 C14.2886139,28.598287 15.2411882,26.4031753 16.527999,24.3781074 C16.9792184,23.6670148 16.9290829,22.7858784 16.4110162,22.1211615 L12.2497708,16.7106747 C12.132788,16.5560894 12.1494998,16.3242114 12.2999062,16.1850846 L17.2800313,11.5784416 C17.3970141,11.4702319 17.5139969,11.4547733 17.5975561,11.4547733 C17.6978271,11.4547733 17.7813862,11.4856904 17.8482335,11.532066 L23.6138146,15.3348653 C24.3491351,15.8140798 25.3184211,15.8449969 26.0871653,15.4276165 C28.2597031,14.2218508 30.616071,13.2943388 33.0727099,12.7069146 C33.9250131,12.4904951 34.5767745,11.8412367 34.7271809,11.0373929 L35.9304326,4.49843326 C35.9638563,4.29747232 36.1476864,4.15834552 36.3649402,4.15834552 L43.4006203,4.15834552 C43.617874,4.15834552 43.8017042,4.29747232 43.8351278,4.49843326 L45.0049559,10.9446417 C45.1553623,11.763944 45.8071237,12.428661 46.6761388,12.6296219 C49.199625,13.2170462 51.6061284,14.1290996 53.8455135,15.3503238 C54.6142576,15.7677042 55.5668319,15.7367871 56.3021524,15.2575726 L62.0677334,11.4238563 C62.1512926,11.3774807 62.2348517,11.3465636 62.3184109,11.3465636 C62.3852582,11.3465636 62.5189528,11.3620221 62.6359356,11.4702319 L67.6160607,16.0768749 C67.7664672,16.2160017 67.783179,16.4324211 67.6661962,16.602465 L63.5383744,21.9665761 C63.0203077,22.6312931 62.986884,23.527888 63.4381034,24.2389806 C64.7416261,26.2640485 65.7109122,28.4437017 66.3459617,30.7161061 C66.5632155,31.5199499 67.2818241,32.1228327 68.1508392,32.2465009 L75.1698075,33.3440568 C75.3870612,33.3749739 75.5374677,33.5450178 75.5374677,33.7459787 L75.5374677,40.2540213 L75.5207559,40.2540213 Z" id="Shape" fill-rule="nonzero">
                </path>
                <path d="M40.5,22 C30.8436592,22 23,29.1713456 23,38 C23,46.8286544 30.8436592,54 40.5,54 C50.1563408,54 58,46.8286544 58,38 C58,29.1713456 50.1563408,22 40.5,22 Z M40.5,49.8180058 C33.3678606,49.8180058 27.5740561,44.5208132 27.5740561,38 C27.5740561,31.4791868 33.3678606,26.1819942 40.5,26.1819942 C47.6321394,26.1819942 53.4259439,31.4791868 53.4259439,38 C53.4259439,44.5208132 47.6321394,49.8180058 40.5,49.8180058 Z" id="Shape" fill-rule="nonzero"></path>
            </g>
            <g id="settings" transform="translate(110.000000, 38.000000)" fill="#FFFFFF">
                <path d="M14.7272727,7.09090909 C10.5163636,7.09090909 7.09090909,10.5163636 7.09090909,14.7272727 C7.09090909,18.9381818 10.5163636,22.3636364 14.7272727,22.3636364 C18.9381818,22.3636364 22.3636364,18.9381818 22.3636364,14.7272727 C22.3636364,10.5163636 18.9381818,7.09090909 14.7272727,7.09090909 Z M14.7272727,21.2727273 C11.118,21.2727273 8.18181818,18.3365455 8.18181818,14.7272727 C8.18181818,11.118 11.118,8.18181818 14.7272727,8.18181818 C18.3365455,8.18181818 21.2727273,11.118 21.2727273,14.7272727 C21.2727273,18.3365455 18.3365455,21.2727273 14.7272727,21.2727273 Z" id="Shape" fill-rule="nonzero"></path>
                <path d="M27.9381818,11.4545455 L26.8374545,11.4545455 C26.5565455,10.4116364 26.1436364,9.41345455 25.6047273,8.478 L26.3825455,7.70018182 C26.6689091,7.41381818 26.8265455,7.03254545 26.8265455,6.62781818 C26.8265455,6.22254545 26.6689091,5.84181818 26.3825455,5.55490909 L23.8990909,3.07145455 C23.3263636,2.49927273 22.3276364,2.49818182 21.7538182,3.07145455 L20.976,3.84927273 C20.04,3.31090909 19.0423636,2.898 18,2.61709091 L18,1.51636364 C18,0.680181818 17.3198182,0 16.4836364,0 L12.9709091,0 C12.1347273,0 11.4545455,0.680181818 11.4545455,1.51636364 L11.4545455,2.61709091 C10.4121818,2.898 9.41454545,3.31090909 8.478,3.84981818 L7.70018182,3.072 C7.12690909,2.49818182 6.12763636,2.49927273 5.55490909,3.072 L3.07145455,5.55545455 C2.78509091,5.84181818 2.62745455,6.22309091 2.62745455,6.62836364 C2.62745455,7.03309091 2.78509091,7.41381818 3.07145455,7.70072727 L3.84927273,8.47854545 C3.31090909,9.41345455 2.89745455,10.4116364 2.61709091,11.4545455 L1.51636364,11.4545455 C0.680181818,11.4545455 0,12.1347273 0,12.9709091 L0,16.4830909 C0,17.3198182 0.680181818,18 1.51636364,18 L2.61709091,18 C2.898,19.0423636 3.31090909,20.04 3.84981818,20.9765455 L3.072,21.7543636 C2.78563636,22.0407273 2.628,22.422 2.628,22.8267273 C2.628,23.232 2.78563636,23.6127273 3.072,23.8996364 L5.55545455,26.3830909 C6.12818182,26.9563636 7.12745455,26.9569091 7.70072727,26.3830909 L8.47854545,25.6052727 C9.41509091,26.1436364 10.4127273,26.5570909 11.4550909,26.838 L11.4550909,27.9387273 C11.4550909,28.7749091 12.1352727,29.4550909 12.9714545,29.4550909 L16.4836364,29.4550909 C17.3198182,29.4550909 18,28.7749091 18,27.9387273 L18,26.838 C19.0423636,26.5570909 20.04,26.1441818 20.9765455,25.6052727 L21.7543636,26.3830909 C22.3281818,26.9569091 23.3263636,26.9558182 23.8996364,26.3830909 L26.3830909,23.8996364 C26.6694545,23.6132727 26.8270909,23.232 26.8270909,22.8267273 C26.8270909,22.422 26.6694545,22.0412727 26.3830909,21.7543636 L25.6052727,20.9765455 C26.1436364,20.04 26.5570909,19.0423636 26.838,18 L27.9387273,18 C28.7749091,18 29.4550909,17.3198182 29.4550909,16.4836364 L29.4550909,12.9709091 C29.4545455,12.1347273 28.7743636,11.4545455 27.9381818,11.4545455 Z M28.3636364,16.4836364 C28.3636364,16.7181818 28.1727273,16.9090909 27.9381818,16.9090909 L25.9789091,16.9090909 L25.8807273,17.3307273 C25.5965455,18.5509091 25.1176364,19.7089091 24.4554545,20.7730909 L24.2263636,21.1407273 L25.6112727,22.5256364 C25.7776364,22.692 25.7776364,22.962 25.6112727,23.1278182 L23.1278182,25.6112727 C22.962,25.7770909 22.692,25.7781818 22.5256364,25.6112727 L21.1407273,24.2263636 L20.7730909,24.4554545 C19.7094545,25.1176364 18.5514545,25.5970909 17.3307273,25.8807273 L16.9090909,25.9789091 L16.9090909,27.9381818 C16.9090909,28.1727273 16.7181818,28.3636364 16.4836364,28.3636364 L12.9709091,28.3636364 C12.7363636,28.3636364 12.5454545,28.1727273 12.5454545,27.9381818 L12.5454545,25.9789091 L12.1238182,25.8807273 C10.9036364,25.5965455 9.74563636,25.1176364 8.68145455,24.4554545 L8.31381818,24.2263636 L6.92890909,25.6112727 C6.762,25.7781818 6.492,25.7770909 6.32672727,25.6112727 L3.84327273,23.1278182 C3.67690909,22.9614545 3.67690909,22.6914545 3.84327273,22.5256364 L5.22818182,21.1407273 L4.99909091,20.7730909 C4.33690909,19.7094545 3.85745455,18.5514545 3.57381818,17.3307273 L3.47563636,16.9090909 L1.51636364,16.9090909 C1.28181818,16.9090909 1.09090909,16.7181818 1.09090909,16.4836364 L1.09090909,12.9709091 C1.09090909,12.7363636 1.28181818,12.5454545 1.51636364,12.5454545 L3.47563636,12.5454545 L3.57381818,12.1238182 C3.858,10.9030909 4.33690909,9.74509091 4.99909091,8.68145455 L5.22818182,8.31381818 L3.84327273,6.92890909 C3.67690909,6.76254545 3.67690909,6.49254545 3.84327273,6.32672727 L6.32672727,3.84327273 C6.49254545,3.67745455 6.76254545,3.67636364 6.92890909,3.84327273 L8.31381818,5.22818182 L8.68145455,4.99909091 C9.74509091,4.33690909 10.9030909,3.85745455 12.1238182,3.57381818 L12.5454545,3.47563636 L12.5454545,1.51636364 C12.5454545,1.28181818 12.7363636,1.09090909 12.9709091,1.09090909 L16.4830909,1.09090909 C16.7181818,1.09090909 16.9090909,1.28181818 16.9090909,1.51636364 L16.9090909,3.47563636 L17.3307273,3.57381818 C18.5509091,3.858 19.7089091,4.33690909 20.7730909,4.99909091 L21.1407273,5.22818182 L22.5256364,3.84327273 C22.6925455,3.67636364 22.9625455,3.67745455 23.1278182,3.84327273 L25.6112727,6.32672727 C25.7776364,6.49309091 25.7776364,6.76309091 25.6112727,6.92890909 L24.2263636,8.31381818 L24.4554545,8.68145455 C25.1176364,9.74454545 25.5970909,10.9025455 25.8807273,12.1238182 L25.9789091,12.5454545 L27.9381818,12.5454545 C28.1727273,12.5454545 28.3636364,12.7363636 28.3636364,12.9709091 L28.3636364,16.4836364 Z" id="Shape" fill-rule="nonzero"></path>
                <path d="M14.7272727,9.27272727 C11.7196364,9.27272727 9.27272727,11.7196364 9.27272727,14.7272727 C9.27272727,17.7349091 11.7196364,20.1818182 14.7272727,20.1818182 C17.7349091,20.1818182 20.1818182,17.7349091 20.1818182,14.7272727 C20.1818182,11.7196364 17.7349091,9.27272727 14.7272727,9.27272727 Z M14.7272727,19.0909091 C12.3212727,19.0909091 10.3636364,17.1332727 10.3636364,14.7272727 C10.3636364,12.3212727 12.3212727,10.3636364 14.7272727,10.3636364 C17.1332727,10.3636364 19.0909091,12.3212727 19.0909091,14.7272727 C19.0909091,17.1332727 17.1332727,19.0909091 14.7272727,19.0909091 Z" id="Shape" fill-rule="nonzero"></path>
            </g>
        </g>
    </g>
</svg>