<?xml version="1.0" encoding="UTF-8"?>
<svg width="96px" height="109px" viewBox="0 0 96 109" version="1.1" xmlns="http://www.w3.org/2000/svg" xmlns:xlink="http://www.w3.org/1999/xlink">
    <!-- Generator: Sketch 48.2 (47327) - http://www.bohemiancoding.com/sketch -->
    <title>wizard</title>
    <desc>Created with Sketch.</desc>
    <defs></defs>
    <g id="Landing" stroke="none" stroke-width="1" fill="none" fill-rule="evenodd" transform="translate(-668.000000, -3144.000000)">
        <g id="wizard" transform="translate(668.000000, 3144.000000)" fill="#FFFFFF" fill-rule="nonzero">
            <path d="M42.471025,45.3148997 C43.2697663,46.0165288 44.561577,46.0165288 45.3603183,45.3148997 L51.4875864,39.9222241 C52.2842797,39.2196937 52.2842797,38.0823065 51.4875864,37.3802268 L9.6140814,0.526897809 C8.81687609,-0.175632603 7.52404151,-0.175632603 6.72581211,0.526897809 L0.599056036,5.92002393 C-0.199685345,6.62210375 -0.199685345,7.75994157 0.599056036,8.46157067 L42.471025,45.3148997 Z M47.1549263,38.6510002 L43.9159277,41.5021289 L37.6125269,35.9544371 L40.8520377,33.1037589 L47.1549263,38.6510002 Z M8.17020274,4.33966863 L37.9632563,30.5608603 L34.7237455,33.4124397 L4.9312041,7.19169862 L8.17020274,4.33966863 Z" id="Shape">
            </path>
            <path d="M94.2115669,50.7255355 C72.3402537,48.2877498 50.212938,48.2877498 28.3431606,50.7255355 C27.3201749,50.8396855 26.5531915,51.6145351 26.5531915,52.5327571 L26.5531915,59.818718 C26.5531915,60.341068 26.8045859,60.838305 27.2438861,61.1844076 C27.6831863,61.5286837 28.2673839,61.6907766 28.8485095,61.6259395 C32.7668829,61.1903434 36.6960086,60.8602218 40.6307662,60.5816961 L36.7666652,107.042995 C36.7241689,107.549365 36.9207788,108.048885 37.3073424,108.420557 C37.6954422,108.791316 38.2391913,109.002265 38.8085408,108.999982 L83.7451628,108.999982 C84.3134882,109.002265 84.8582614,108.791316 85.2443132,108.420557 C85.6324128,108.048885 85.8290227,107.549365 85.7870384,107.042995 L81.9229374,60.5816961 C85.857183,60.8602218 89.7873326,61.1903434 93.7046821,61.6259395 C93.7881388,61.6346148 93.8726197,61.6405507 93.9571005,61.6405507 C95.0855593,61.6405507 96,60.8246071 96,59.818718 L96,52.5327571 C96,51.6145351 95.2330167,50.8396855 94.2115669,50.7255355 Z M41.0086259,105.35723 L43.8819973,70.7478877 L78.6717063,70.7478877 L81.5445657,105.35723 L41.0086259,105.35723 Z M44.1840802,67.1051356 L44.7508697,60.2981476 C55.7564149,59.6767154 66.7962646,59.6767154 77.8028339,60.2981476 L78.3696234,67.1051356 L44.1840802,67.1051356 Z M91.914713,57.764476 C71.5573982,55.6581818 50.9947695,55.6581818 30.6384786,57.764476 L30.6384786,54.1463802 C50.9932334,52.0076674 71.5589341,52.0076674 91.914713,54.1463802 L91.914713,57.764476 Z" id="Shape"></path>
            <path d="M62.680595,20.9683517 C62.5234341,20.0362524 61.7137882,19.3551402 60.7669306,19.3551402 C59.8195864,19.3551402 59.0109137,20.0362524 58.8527796,20.9683517 C58.3243689,24.1238964 55.8453147,26.5963871 52.6821486,27.1236058 C51.7489148,27.2799267 51.0638298,28.0877461 51.0638298,29.0324676 C51.0638298,29.9776746 51.7489148,30.7850085 52.6821486,30.9418148 C55.8453147,31.4690335 58.3243689,33.9415241 58.8527796,37.0970688 C59.0109137,38.0286827 59.8195864,38.7102804 60.7669306,38.7102804 C61.7137882,38.7102804 62.5234341,38.0286827 62.680595,37.0970688 C63.2090058,33.9415241 65.6875734,31.4690335 68.8512261,30.9418148 C69.7844598,30.7850085 70.4680851,29.9776746 70.4680851,29.0324676 C70.4680851,28.0877461 69.7844598,27.2799267 68.8512261,27.1236058 C65.6875734,26.5963871 63.2090058,24.1238964 62.680595,20.9683517 Z M60.7669306,31.7972102 C60.0098338,30.7233541 59.0722209,29.7883418 57.9949637,29.0324676 C59.0722209,28.2770787 60.0098338,27.3420666 60.7669306,26.2662686 C61.5230543,27.3420666 62.4621269,28.2770787 63.5379245,29.0324676 C62.4621269,29.7883418 61.5230543,30.7233541 60.7669306,31.7972102 Z" id="Shape"></path>
            <path d="M71.0656139,14.6429443 C74.2282934,15.1696643 76.7073476,17.6420929 77.2357583,20.7980438 C77.3938924,21.7296344 78.2030518,22.411215 79.1494228,22.411215 C80.0962804,22.411215 80.9064129,21.7296344 81.0630872,20.7980438 C81.5919846,17.6420929 84.0710386,15.1696643 87.2342048,14.6429443 C88.1674385,14.4861419 88.8510638,13.6788281 88.8510638,12.7336449 C88.8510638,11.788947 88.1674385,10.9811478 87.2342048,10.82386 C84.0710386,10.29714 81.5919846,7.82519686 81.0630872,4.6697313 C80.9064129,3.73716978 80.0962804,3.05607477 79.1494228,3.05607477 C78.2030518,3.05607477 77.3938924,3.73716978 77.2357583,4.6697313 C76.7073476,7.82519686 74.2282934,10.29714 71.0656139,10.82386 C70.1309205,10.9811478 69.4468085,11.788947 69.4468085,12.7336449 C69.4468085,13.6788281 70.1309205,14.4861419 71.0656139,14.6429443 Z M79.1494228,9.96751521 C79.906033,11.0428008 80.8446191,11.9782749 81.9213898,12.7336449 C80.8446191,13.4890147 79.906033,14.4240035 79.1494228,15.4983181 C78.3918393,14.4240035 77.4551997,13.4890147 76.3779424,12.7336449 C77.4551997,11.9782749 78.3918393,11.0428008 79.1494228,9.96751521 Z" id="Shape"></path>
            <polygon id="Shape" points="46.9787234 99.5371311 48.6527545 83.5327103 53.106383 83.8282464 51.4323519 99.8317757"></polygon>
            <polygon id="Shape" points="49.0212766 79.2784293 49.201225 76.4018692 52.0851064 76.5821048 51.9040718 79.4579439"></polygon>
            <polygon id="Shape" points="42.2549111 5.09345794 42.2549111 10.4421474 35.7446809 10.4421474 35.7446809 14.0073446 42.2549111 14.0073446 42.2549111 19.3551402 46.5950646 19.3551402 46.5950646 14.0073446 53.106383 14.0073446 53.106383 10.4421474 46.5950646 10.4421474 46.5950646 5.09345794"></polygon>
        </g>
    </g>
</svg>