<?xml version="1.0" encoding="UTF-8"?>
<svg width="89px" height="93px" viewBox="0 0 89 93" version="1.1" xmlns="http://www.w3.org/2000/svg" xmlns:xlink="http://www.w3.org/1999/xlink">
    <!-- Generator: Sketch 48.2 (47327) - http://www.bohemiancoding.com/sketch -->
    <title>headset</title>
    <desc>Created with Sketch.</desc>
    <defs></defs>
    <g id="Landing" stroke="none" stroke-width="1" fill="none" fill-rule="evenodd" transform="translate(-1128.000000, -3160.000000)">
        <g id="headset" transform="translate(1128.000000, 3160.000000)" fill="#FFFFFF" fill-rule="nonzero">
            <path d="M83.9600336,40.4939348 L83.8986611,40.4939348 L83.8986611,32.4246695 C83.8986611,14.5476388 66.2233823,0 44.4975188,0 C22.7716553,0 5.09637657,14.5476388 5.09637657,32.4246695 L5.09637657,40.4939348 C3.47786879,40.7139124 2.01413476,41.6325704 1.04579185,43.0360813 C0.351515496,44.1162886 -0.0128836977,45.3994576 0.00245942623,46.7098931 L0.00245942623,64.4229144 C-0.0324461807,65.7189992 0.304910757,66.9954027 0.969076234,68.0803253 C2.15049678,69.9008303 4.20647538,70.8192832 7.10632581,70.8192832 L10.3744112,70.8192832 L10.7886755,70.8192832 C10.9198593,72.7443442 12.4685558,74.2027983 14.2715647,74.0994723 L17.8465126,74.0994723 C19.6495214,74.2027983 21.198218,72.7443442 21.3294017,70.8192832 L21.3294017,40.0675102 C21.198218,38.1424492 19.6495214,36.6839951 17.8465126,36.787321 L14.2715647,36.787321 C12.4685558,36.6839951 10.9198593,38.1424492 10.7886755,40.0675102 L10.7886755,40.3463262 L10.3744112,40.3463262 L8.16500136,40.3463262 L8.16500136,32.4246695 C8.16500136,16.3517428 24.459399,3.28018913 44.4975188,3.28018913 C64.5356387,3.28018913 80.8300363,16.4009456 80.8300363,32.4410705 L80.8300363,40.3135244 L78.6206264,40.3135244 L78.2063621,40.3135244 L78.2063621,40.0347083 C78.0751784,38.1096473 76.5264818,36.6511932 74.723473,36.7545192 L71.133182,36.7545192 C69.3301731,36.6511932 67.7814765,38.1096473 67.6502928,40.0347083 L67.6502928,70.7700804 C67.7814765,72.6951414 69.3301731,74.1535955 71.133182,74.0502695 L71.2712701,74.0502695 C70.9243237,75.8957859 70.1003979,77.6002542 68.8930859,78.9705532 C65.7170592,82.7099688 59.6872115,84.8584927 51.6167283,85.2849173 L51.6167283,84.3992662 C51.3996231,82.3099907 49.6447533,80.8002837 47.6888886,81.0206714 L38.8972786,81.0206714 C36.9416057,80.8002837 35.1865441,82.3099907 34.9694389,84.3992662 L34.9694389,89.598366 C35.1781053,91.6880514 36.9318244,93.2012437 38.8865384,92.9781908 C38.8901824,92.9777808 38.8936346,92.9773708 38.8972786,92.9769608 L47.6735455,92.9769608 C49.6276841,93.206164 51.3858143,91.6987121 51.6002345,89.6098466 C51.600618,89.6061564 51.6010016,89.6022612 51.6013852,89.598366 L51.6013852,88.5487054 C60.8072596,88.089479 67.4354891,85.5965352 71.2405838,81.0534733 C72.9022442,79.0785944 73.9712763,76.6161975 74.3092086,73.9846657 L74.6467573,73.9846657 C76.4497662,74.0879917 77.9984628,72.6295376 78.1296465,70.7044766 L78.5439108,70.7044766 L81.7506237,70.7044766 C84.635131,70.7044766 86.7064528,69.7860236 87.8878733,67.9655187 C88.58004,66.929799 88.9649606,65.6954228 88.9925782,64.4229144 L88.9925782,46.7098931 C89.1452423,43.5307748 86.9250923,40.7885367 83.9600336,40.4939348 Z M13.8879866,43.6101144 C13.8879866,43.5281097 13.8879866,43.446105 13.8879866,43.3641002 L13.8879866,40.1987177 C13.9848401,40.0742756 14.1215856,39.9924758 14.2715647,39.9691045 L17.8465126,39.9691045 C18.1073457,39.9691045 18.2607769,40.0839111 18.2607769,39.9691045 L18.2607769,70.5240662 C18.1387991,70.6396929 17.9786552,70.6987363 17.8158263,70.6880757 L14.2715647,70.6880757 C14.144025,70.7009914 14.0155263,70.7009914 13.8879866,70.6880757 L13.8879866,43.6101144 Z M10.3744112,43.5773125 L10.3744112,43.5937135 C10.6352443,43.5937135 10.7886755,43.6921192 10.7886755,43.5937135 L10.7886755,67.3750846 C10.6699581,67.4710302 10.5228559,67.5177729 10.3744112,67.5062922 L7.1676983,67.5062922 C5.84492923,67.6729668 4.52196837,67.1975444 3.56206418,66.2106175 C3.23257059,65.681687 3.06130297,65.0582461 3.07108421,64.4229144 L3.07108421,46.7098931 C3.05497393,46.0634909 3.22662513,45.4275442 3.56206418,44.8893882 C4.35472832,43.9908214 5.47707783,43.5108887 6.63068896,43.5773125 L10.3744112,43.5773125 Z M48.5327604,89.5163612 C48.2753795,89.6873411 47.9763804,89.772831 47.6735455,89.7623754 L38.8972786,89.7623754 C38.5944437,89.772831 38.2954446,89.6873411 38.0380636,89.5163612 L38.0380636,84.5960775 C38.2954446,84.4250977 38.5944437,84.3396078 38.8972786,84.3500634 L47.6735455,84.3500634 C47.9763804,84.3396078 48.2753795,84.4250977 48.5327604,84.5960775 L48.5327604,89.5163612 Z M75.1377373,67.5062922 C75.1377373,67.5882969 75.1377373,67.6703017 75.1377373,67.7523064 L75.1377373,70.6388728 C75.023431,70.746709 74.8757535,70.8051374 74.723473,70.8028823 L71.133182,70.8028823 C71.0056422,70.815798 70.8771436,70.815798 70.7496039,70.8028823 L70.7496039,40.2479206 C70.874075,40.1380342 71.0338352,40.0851412 71.1945545,40.1003121 L74.723473,40.1003121 C74.9843061,40.1003121 75.1377373,40.2151187 75.1377373,40.1003121 L75.1377373,67.5062922 Z M85.9239534,46.7098931 L85.9239534,64.4229144 C85.9337347,65.0582461 85.7624671,65.681687 85.4329735,66.2106175 C84.4786312,67.2094351 83.1549031,67.6971582 81.8273393,67.5390941 L78.6206264,67.5390941 C78.4930867,67.5513948 78.3645881,67.5513948 78.2370483,67.5390941 L78.2370483,43.724921 C78.3549986,43.6275404 78.5026762,43.5807977 78.6513127,43.5937135 L82.4103781,43.5937135 C83.5639892,43.5274947 84.6863387,44.0072223 85.4790028,44.9057891 C85.795263,45.4447652 85.9504203,46.0741515 85.9239534,46.7098931 Z" id="Shape"></path>
            <path d="M61.365009,37.7543547 L61.365009,37.6561693 C53.9802227,27.7508958 40.461499,26.103017 31.1698349,33.9756475 C29.8915476,35.0587556 28.7331836,36.2936419 27.7173845,37.6561693 L27.7173845,37.7543547 C21.5028586,46.02525 21.4203513,57.760659 27.517832,66.1299442 C27.5161051,66.1626726 27.5161051,66.1954011 27.517832,66.2281296 C34.8427525,76.1839277 48.3513067,77.9242644 57.6901727,70.1154544 C59.0269827,68.9975724 60.234851,67.7146161 61.2882581,66.2935865 L61.365009,66.2935865 C61.365009,66.2935865 61.365009,66.2935865 61.365009,66.1790369 C67.544997,57.8492304 67.544997,46.0839567 61.365009,37.7543547 Z M35.1929288,34.7760634 C34.2732603,36.1905472 33.5059425,37.7111941 32.90575,39.3089574 C32.2696763,39.0133783 31.6495285,38.6801615 31.0483765,38.3107389 C32.2643038,36.927347 33.6600201,35.7370533 35.1929288,34.7760634 Z M29.0528514,63.0043746 C24.7570997,56.3165149 24.7570997,47.502327 29.0528514,40.8144673 C29.9656123,41.4340583 30.9198187,41.981033 31.9079874,42.4508912 C30.3328656,48.6670517 30.3328656,55.2172472 31.9079874,61.4334077 C30.9215456,61.8819924 29.9673391,62.4070799 29.0528514,63.0043746 Z M31.0483765,65.5408316 L31.002326,65.5408316 C31.6337945,65.1540219 32.2844509,64.8044409 32.9518006,64.4935203 C33.5374104,66.0890336 34.2891862,67.6094759 35.1929288,69.0264144 C33.6630902,68.0801523 32.2675657,66.9066318 31.0483765,65.5408316 Z M42.8680257,71.3992289 C40.0282398,70.581017 37.5108081,67.5699971 35.8683373,63.3316594 C38.1453467,62.6149058 40.496037,62.1972086 42.8680257,62.0879773 L42.8680257,71.3992289 Z M42.8680257,58.8151296 C40.1617865,58.9302929 37.4799158,59.4087423 34.885925,60.2388183 C33.5044075,54.7835949 33.5044075,49.0352471 34.885925,43.5800236 C37.4795321,44.411736 40.1615946,44.8899809 42.8680257,45.0037124 L42.8680257,58.8151296 Z M42.8680257,41.7308647 C40.496037,41.6216334 38.1453467,41.2039362 35.8683373,40.4871826 C37.5108081,36.2488448 40.0282398,33.2214607 42.8680257,32.419613 L42.8680257,41.7308647 Z M57.7577135,38.3107389 C57.1477352,38.6979576 56.517226,39.0477432 55.8696397,39.3580501 C55.2823029,37.7447408 54.5251546,36.2077297 53.6131612,34.7760634 C55.1460699,35.7370533 56.5417863,36.927347 57.7577135,38.3107389 Z M45.9380644,32.4032488 C48.7778502,33.2214607 51.295282,36.2324806 52.9377527,40.4708183 C50.6607433,41.187572 48.3100531,41.6052692 45.9380644,41.7145004 L45.9380644,32.4032488 Z M45.9380644,44.9873481 C48.6444954,44.8736167 51.326558,44.3953718 53.9201651,43.5636594 C55.3014906,49.0188828 55.3014906,54.7672307 53.9201651,60.2224541 C51.3261742,59.3923781 48.6443035,58.9139287 45.9380644,58.7987654 L45.9380644,44.9873481 Z M45.9380644,71.3828647 L45.9380644,62.071613 C48.3100531,62.1808443 50.6607433,62.5985415 52.9377527,63.3152952 C51.295282,67.5536329 48.7778502,70.581017 45.9380644,71.3828647 Z M53.6131612,69.0264144 C54.5169039,67.6094759 55.2686796,66.0890336 55.8542895,64.4935203 C56.5018758,64.8040317 57.1321931,65.1538173 57.7423633,65.5408316 C56.5275874,66.9049954 55.1372436,68.0785159 53.6131612,69.0264144 Z M59.7532387,62.9880104 C58.8406697,62.3684194 57.8862714,61.8214447 56.8981027,61.3515865 C58.4732244,55.135426 58.4732244,48.5852305 56.8981027,42.36907 C57.8845445,41.9202807 58.8387509,41.3951932 59.7532387,40.7981031 C64.0489904,47.4857582 64.0489904,56.3001507 59.7532387,62.9880104 Z" id="Shape"></path>
        </g>
    </g>
</svg>