<?xml version="1.0" encoding="UTF-8"?>
<svg width="242px" height="143px" viewBox="0 0 242 143" version="1.1" xmlns="http://www.w3.org/2000/svg" xmlns:xlink="http://www.w3.org/1999/xlink">
    <!-- Generator: Sketch 48.2 (47327) - http://www.bohemiancoding.com/sketch -->
    <title>bicycle</title>
    <desc>Created with Sketch.</desc>
    <defs></defs>
    <g id="HMIP-Process" stroke="none" stroke-width="1" fill="none" fill-rule="evenodd" transform="translate(-609.000000, -1007.000000)">
        <g id="bicycle" transform="translate(609.000000, 1007.000000)" fill="#000000" fill-rule="nonzero">
            <path d="M198.965571,56.6554665 C194.946521,56.6554665 191.055239,57.2126433 187.362563,58.2511372 L167.976558,8.7195122 L187.813663,8.7195122 C190.318616,8.7195122 192.551953,10.314747 193.372016,12.6890701 C194.003035,14.5162439 193.724031,16.4676707 192.605842,18.0432866 C191.488087,19.6189024 189.741052,20.5222439 187.813663,20.5222439 L186.355193,20.5222439 C183.954976,20.5222439 182.009335,22.4741067 182.009335,24.882 C182.009335,27.2898933 183.954976,29.2417561 186.355193,29.2417561 L187.813663,29.2417561 C192.519359,29.2417561 196.957784,26.9459085 199.686983,23.1001677 C202.415748,19.2544268 203.125427,14.2956402 201.585254,9.83517378 C199.553565,3.9521189 194.019549,0 187.813663,0 L161.601618,0 C160.164442,0 158.820268,0.712820122 158.010635,1.90390549 C157.201002,3.09499085 157.031078,4.61087805 157.556493,5.95324695 L169.349414,36.0848293 L126.112034,36.0848293 L120.700571,23.2893811 C120.047823,21.6200305 118.442463,20.5222439 116.655011,20.5222439 L94.7588375,20.5222439 C90.7536943,20.5222439 87.0158214,22.504189 84.7594517,25.8237073 C82.5030819,29.1432256 82.0298179,33.3582378 83.4926339,37.0980366 C85.3235441,41.7795427 89.7458897,44.8043415 94.7588375,44.8043415 L112.64248,44.8043415 L103.636992,60.452378 C98.2503002,58.0139665 92.2777869,56.6554665 85.9945446,56.6554665 C63.7320153,56.6554665 45.3638098,73.7025488 43.1782776,95.4677591 L25.3828453,95.4677591 C22.9826276,95.4677591 21,97.4200579 21,99.8279512 C21,101.606972 21.4319689,103.509513 25.3828453,104.187271 C26.7794547,104.426854 33.2477401,104.187271 33.874608,104.187271 L43.1782776,104.187271 C44.4098939,116.452573 50.7809224,127.218119 60.0910551,134.280052 L40.7867516,134.280052 C38.386534,134.280052 36.4408931,136.231915 36.4408931,138.639808 C36.4408931,141.047701 38.386534,142.999564 40.7867516,142.999564 L85.9941101,142.999564 C108.256639,142.999564 126.624845,125.952482 128.810377,104.187271 L136.636399,104.187271 C138.481216,109.989235 143.904413,114.204247 150.291521,114.204247 C153.00551,114.204247 155.545664,113.44347 157.71164,112.122899 C160.362179,121.057348 165.82275,128.788503 173.062516,134.280488 L150.291956,134.280488 C147.891738,134.280488 145.946097,136.232351 145.946097,138.640244 C145.946097,141.048137 147.891738,143 150.291956,143 L198.965571,143 C222.694827,143 242,123.633091 242,99.8279512 C242,76.022811 222.694827,56.6554665 198.965571,56.6554665 Z M94.7588375,36.0848293 C93.3459989,36.0848293 92.0996067,35.232497 91.5837533,33.9136707 C91.1652471,32.8437866 91.2951882,31.6853994 91.9409828,30.7358445 C92.5863428,29.7862896 93.6137038,29.2417561 94.7588375,29.2417561 L113.69157,29.2417561 L116.368619,36.0848293 L94.7588375,36.0848293 Z M85.9941101,134.280488 C67.0574662,134.280488 51.6513979,118.825152 51.6513979,99.8279512 C51.6513979,80.83075 67.0574662,65.3754146 85.9941101,65.3754146 C90.6954598,65.3754146 95.1782128,66.3297652 99.2628852,68.0527409 L82.2305966,97.6480732 C81.4539917,98.9969817 81.4539917,100.658921 82.2305966,102.007829 C83.0067669,103.356738 84.4413348,104.187707 85.9941101,104.187707 L103.135914,104.187707 C101.19375,111.86829 94.2455916,117.568235 85.9941101,117.568235 C83.5938924,117.568235 81.6482516,119.520098 81.6482516,121.927991 C81.6482516,124.335884 83.5938924,126.287747 85.9941101,126.287747 C99.0568915,126.287747 109.926318,116.709799 112.005377,104.187707 L120.052603,104.187707 C117.908357,121.132771 103.457942,134.280488 85.9941101,134.280488 Z M93.5215716,95.4681951 L106.781655,72.4277561 C113.923204,77.8935823 118.867487,86.0995152 120.052603,95.4681951 L93.5215716,95.4681951 Z M128.810377,95.4681951 C127.546167,82.8802713 120.868321,71.8727591 111.155762,64.8265213 L121.396777,47.0321768 L142.504612,95.4681951 L128.810377,95.4681951 Z M150.291956,105.484735 C148.929529,105.484735 147.678791,104.997314 146.702711,104.187271 L149.147691,104.187271 C150.614418,104.187271 151.981625,103.445241 152.784306,102.214482 C153.58742,100.983287 153.716927,99.4290335 153.129367,98.0814329 L151.481417,94.3002165 C154.020702,94.8499817 155.930707,97.1183628 155.930707,99.8279512 C155.930707,102.946921 153.400983,105.484735 150.291956,105.484735 Z M150.291956,85.4512195 C149.421046,85.4512195 148.611847,85.711061 147.93172,86.1535762 L129.912052,44.8043415 L172.761782,44.8043415 L179.275355,61.4468384 C168.966979,66.7905915 161.076204,76.1928415 157.712074,87.5325671 C155.546533,86.2124329 153.005944,85.4512195 150.291956,85.4512195 Z M198.965571,134.280488 C180.028927,134.280488 164.622859,118.825152 164.622859,99.8279512 C164.622859,86.8232348 171.843937,75.4813293 182.473472,69.6178933 L194.920446,101.421442 C195.59275,103.139622 197.231573,104.189015 198.966875,104.189015 C199.495331,104.189015 200.032479,104.091357 200.553982,103.886012 C202.788188,103.006213 203.888125,100.475811 203.010696,98.2344604 L190.560246,66.422628 C193.251201,65.7407622 196.066449,65.3749787 198.965571,65.3749787 C217.902215,65.3749787 233.308283,80.830314 233.308283,99.8275152 C233.308283,118.824716 217.902215,134.280488 198.965571,134.280488 Z" id="Shape"></path>
            <path d="M27.535,134.465 C26.605,133.535 25.315,133 24,133 C22.685,133 21.395,133.535 20.465,134.465 C19.535,135.395 19,136.685 19,138 C19,139.315 19.535,140.605 20.465,141.535 C21.395,142.465 22.685,143 24,143 C25.315,143 26.605,142.465 27.535,141.535 C28.465,140.605 29,139.315 29,138 C29,136.685 28.465,135.395 27.535,134.465 Z" id="Shape"></path>
            <path d="M72.6661137,37 L43.3338863,37 C39.8356809,37 37,39.2385 37,42 C37,44.7615 39.8356809,47 43.3338863,47 L72.6661137,47 C76.1643191,47 79,44.7615 79,42 C79,39.2385 76.1643191,37 72.6661137,37 Z" id="Shape"></path>
            <path d="M26.4812472,37 L21.5187528,37 C19.0230456,37 17,39.2385 17,42 C17,44.7615 19.0234975,47 21.5187528,47 L26.4812472,47 C28.9769544,47 31,44.7615 31,42 C31,39.2385 28.9769544,37 26.4812472,37 Z" id="Shape"></path>
            <path d="M50.3073455,55 L6.69265452,55 C2.99630143,55 0,57.2385 0,60 C0,62.7615 2.99630143,65 6.69265452,65 L50.3073455,65 C54.0036986,65 57,62.7615 57,60 C57,57.2385 54.0036986,55 50.3073455,55 Z" id="Shape"></path>
            <path d="M218.452833,108.937159 C216.649451,107.487566 213.991213,107.748642 212.515258,109.5194 C209.236342,113.455017 204.38991,115.711874 199.219426,115.711874 C196.889037,115.711874 195,117.567171 195,119.855937 C195,122.144703 196.889037,124 199.219426,124 C206.930848,124 214.157036,120.635435 219.045663,114.768685 C220.521618,112.997512 220.256216,110.386752 218.452833,108.937159 Z" id="Shape"></path>
            <path d="M222.000051,96 C219.23858,96 217.000103,98.2127218 217.000103,100.942421 L217.000103,101.026442 C216.982603,103.756141 219.20758,105.982702 221.968552,106 C221.979051,106 221.990051,106 222.000551,106 C224.747023,106 226.9825,103.807542 227,101.088716 L227,100.942421 C227,98.2127218 224.761023,96 222.000051,96 Z" id="Shape"></path>
        </g>
    </g>
</svg>