<?xml version="1.0" encoding="UTF-8"?>
<svg width="38px" height="48px" viewBox="0 0 38 48" version="1.1" xmlns="http://www.w3.org/2000/svg" xmlns:xlink="http://www.w3.org/1999/xlink">
    <!-- Generator: Sketch 48.2 (47327) - http://www.bohemiancoding.com/sketch -->
    <title>Group</title>
    <desc>Created with Sketch.</desc>
    <defs></defs>
    <g id="Lo-Fi-Solutions" stroke="none" stroke-width="1" fill="none" fill-rule="evenodd">
        <g id="District-Defend_color_stacked_TM" transform="translate(-22.000000, 0.000000)" fill-rule="nonzero">
            <g id="Group" transform="translate(21.000000, 0.000000)">
                <path d="M32.3,12.7 L32.2,11.8 L19.7,6.8 L19.7,9.9 L29.5,13.8 C29.7,16.8 30.1,22.6 29.5,24.9 C28.7,27.9 22.8,33.1 19.8,35.6 C16.8,33.2 11.1,28.1 10.3,24.9 C9.3,21.3 9.9,15.9 10.2,13.8 L7.6,11.9 L7.5,12.5 C7.4,12.8 6.1,20.5 7.5,25.6 C8.9,30.7 17.9,37.7 18.9,38.5 L19.8,39.2 L20.7,38.5 C21.8,37.7 31,30.4 32.3,25.6 C33.1,22.2 32.4,13.6 32.3,12.7 Z" id="Shape" fill="#F2C118"></path>
                <path d="M19.7,27.2 C18,25.8 15.9,23.7 15.6,22.6 C15.2,21.2 15.4,19.1 15.5,17.8 L19.6,16.1 L19.6,13 L13,15.7 L12.9,16.5 C12.9,16.7 12.2,20.7 12.9,23.3 C13.6,26 18,29.5 18.9,30.1 L19.8,30.8 L19.8,27.2 L19.7,27.2 Z" id="Shape" fill="#FFFFFE"></path>
                <path d="M35.5,17.6 C35.6,21.1 35.5,24.6 35,26.6 C33.7,31.4 24.2,39.8 19.7,43.4 C15.3,39.9 6.1,31.8 4.7,26.6 C3.1,20.8 4.2,12 4.6,9.3 L19.6,3.1 L29.1,6.9 L29.1,3.8 L19.6,0 L2,7.3 L1.9,8.1 C1.8,8.6 -0.1,19.9 1.9,27.4 C4,35 18.2,46 18.8,46.4 L19.7,47.1 L20.6,46.4 C21.2,45.9 35.9,34.6 37.8,27.4 C38.4,25.2 38.5,21.3 38.4,17.7 L35.5,17.7 L35.5,17.6 Z" id="Shape" fill="#FFFFFE"></path>
            </g>
        </g>
    </g>
</svg>