<?xml version="1.0" standalone="no"?>
<!DOCTYPE svg PUBLIC "-//W3C//DTD SVG 20010904//EN"
 "http://www.w3.org/TR/2001/REC-SVG-20010904/DTD/svg10.dtd">
<svg version="1.0" xmlns="http://www.w3.org/2000/svg"
 width="1979.000000pt" height="1979.000000pt" viewBox="0 0 1979.000000 1979.000000"
 preserveAspectRatio="xMidYMid meet">
<metadata>
Created by potrace 1.15, written by Peter Selinger 2001-2017
</metadata>
<g transform="translate(0.000000,1979.000000) scale(0.100000,-0.100000)"
fill="#000000" stroke="none">
<path d="M12165 19473 c-16 -2 -50 -8 -75 -14 -97 -21 -10729 -3393 -10733
-3403 -2 -6 59 -442 135 -969 77 -527 137 -961 134 -964 -6 -7 -161 -50 -641
-179 -591 -159 -753 -209 -927 -287 l-58 -26 0 -2159 0 -2160 69 -198 c39
-110 95 -269 126 -354 31 -85 78 -218 105 -295 27 -77 65 -185 85 -240 21 -55
77 -212 125 -350 49 -137 108 -302 130 -365 23 -63 73 -203 111 -310 38 -107
85 -240 105 -295 20 -55 71 -199 114 -320 166 -468 310 -874 345 -970 21 -55
70 -197 111 -315 41 -118 81 -228 88 -245 8 -16 19 -48 26 -70 19 -59 163
-327 228 -424 187 -278 506 -506 897 -641 197 -68 347 -103 1085 -254 388 -80
1054 -217 1480 -306 426 -89 1077 -224 1447 -300 l671 -139 2076 -1256 c1141
-690 2080 -1255 2086 -1255 6 0 86 76 178 169 92 93 1870 1867 3952 3943 2082
2075 3795 3784 3807 3799 12 14 32 50 45 80 20 49 22 69 22 219 -1 137 -4 178
-22 244 -12 44 -24 81 -25 83 -8 7 -6320 2363 -6323 2360 -2 -2 57 -28 131
-57 75 -29 134 -57 133 -61 -3 -7 -3637 -2418 -3763 -2496 -22 -14 -33 -18
-25 -10 8 8 420 284 915 612 684 453 899 601 898 614 -2 14 224 168 942 642
519 343 944 626 944 629 1 3 -73 34 -164 69 -153 59 -166 63 -187 49 -395
-257 -1839 -1188 -1855 -1196 -12 -7 -32 -12 -45 -12 -15 0 -162 -90 -364
-223 -345 -227 -782 -509 -1179 -760 -213 -135 -699 -450 -1440 -933 -214
-140 -359 -240 -357 -248 1 -8 -324 -225 -820 -546 -709 -459 -829 -533 -868
-537 -30 -4 -42 -2 -35 5 6 5 1565 1014 3465 2242 1900 1228 3470 2243 3489
2256 l33 22 -49 18 c-41 14 -52 24 -67 58 -24 56 -163 386 -220 526 -26 63
-56 133 -66 155 -10 22 -64 150 -120 285 l-101 245 12 3353 12 3353 -39 40
c-59 61 -110 80 -189 72z m29 -1000 c-13 -576 -24 -2452 -18 -3082 6 -650 6
-725 -8 -735 -14 -11 -17 -145 -28 -1226 -7 -668 -15 -1234 -19 -1258 l-6 -43
-550 -333 c-5215 -3151 -8228 -4967 -8233 -4962 -3 4 -209 1373 -458 3044
-308 2074 -455 3036 -463 3034 -6 -1 -11 -1 -11 1 0 2 -27 189 -60 416 -33
227 -58 422 -55 434 5 18 -49 401 -204 1455 -10 68 -15 124 -12 126 3 2 1316
434 2916 960 1601 525 3873 1272 5050 1660 1177 387 2145 704 2152 705 9 1 11
-48 7 -196z m-681 -7402 c35 -32 69 -96 65 -122 -2 -14 -979 -621 -3388 -2105
-1862 -1147 -3390 -2088 -3396 -2091 -7 -2 -14 11 -18 31 -8 42 -83 129 -134
155 l-36 18 29 19 c16 11 1550 951 3409 2091 l3380 2072 30 -21 c17 -12 44
-33 59 -47z m-209 -1103 c8 -13 8 -23 0 -35 -11 -18 -492 -352 -508 -353 -5 0
-14 -6 -20 -14 -13 -16 -531 -366 -542 -366 -4 0 -12 -6 -18 -14 -16 -19 -604
-416 -617 -416 -6 0 -18 -9 -27 -19 -23 -26 -684 -474 -699 -474 -7 0 -13 -4
-13 -8 0 -14 -624 -433 -651 -437 -17 -2 -36 5 -57 23 -36 30 -40 55 -14 77
46 39 632 418 647 418 9 0 14 3 11 8 -6 10 705 478 721 474 7 -2 12 1 11 6 -3
9 573 396 609 409 10 4 23 12 28 19 10 12 542 364 550 364 3 0 13 7 22 15 60
50 521 345 537 342 10 -1 24 -10 30 -19z m3971 -169 c0 -12 -220 -192 -429
-351 -75 -56 -82 -60 -120 -54 -22 4 -149 54 -282 111 -145 63 -255 105 -275
105 -21 0 -54 -14 -95 -41 l-62 -40 -204 82 c-111 45 -209 87 -216 92 -10 8
-8 15 10 34 21 22 23 22 29 6 7 -21 368 -173 409 -173 12 0 44 16 70 35 26 19
59 35 73 35 14 0 126 -44 249 -97 194 -84 231 -97 280 -97 l58 -1 225 175
c141 110 227 184 231 198 6 21 8 22 28 9 11 -8 21 -21 21 -28z m-5710 -1158
c-20 -19 -2944 -1951 -2953 -1951 -16 0 -24 33 -10 41 7 5 353 233 768 508
563 373 758 497 770 491 12 -6 106 51 365 223 540 356 1060 697 1065 697 2 0
0 -4 -5 -9z m4235 -1200 c30 -20 56 -44 58 -55 3 -11 -11 -34 -35 -58 -37 -39
-528 -441 -578 -474 -64 -42 0 27 203 217 305 287 292 273 292 303 0 35 -24
82 -64 125 l-31 34 50 -28 c28 -16 75 -44 105 -64z m1391 39 c30 -6 70 -12 89
-14 53 -6 250 -93 220 -98 -17 -2 93 -55 345 -167 437 -193 512 -230 561 -273
46 -41 78 -108 69 -147 -7 -34 -107 -133 -965 -961 -344 -332 -679 -656 -745
-720 -71 -69 -141 -128 -171 -143 -71 -36 -160 -51 -257 -44 -140 10 -95 -8
-907 376 -234 111 -449 218 -478 238 -100 68 -131 171 -74 245 15 20 279 247
587 505 308 257 739 619 958 803 219 184 421 347 450 363 84 44 205 58 318 37z
m-1198 -101 c6 -9 8 -23 5 -31 -6 -14 -2408 -2038 -2460 -2072 -53 -34 -95
-20 -339 117 -242 135 -269 158 -234 197 l18 20 26 -23 c24 -22 267 -164 368
-216 60 -30 121 -28 167 7 20 15 561 466 1201 1002 766 641 1167 983 1171 999
4 14 2 33 -5 44 -12 18 -9 17 30 -4 23 -13 47 -31 52 -40z m-7863 -559 c118
-22 227 -98 275 -191 l14 -26 -414 -277 c-228 -152 -417 -276 -419 -276 -3 0
-10 16 -16 35 -14 44 -115 147 -172 176 -24 12 -69 29 -101 38 l-58 17 392
257 c270 177 400 257 419 257 15 0 51 -4 80 -10z m-200 -24 c0 -2 -178 -120
-395 -262 -289 -190 -393 -263 -390 -275 4 -11 -125 -99 -490 -335 -272 -175
-495 -321 -495 -324 0 -6 383 -220 394 -220 4 0 225 144 492 321 327 217 490
319 501 315 9 -4 32 4 53 18 21 14 41 22 44 19 5 -5 -559 -384 -980 -658
l-110 -72 -242 135 c-133 75 -239 139 -234 143 7 8 1845 1198 1850 1199 1 0 2
-2 2 -4z m2929 -1687 c63 -35 101 -67 101 -84 0 -7 -19 -31 -42 -54 -51 -48
-271 -221 -277 -216 -3 4 118 121 213 206 36 33 38 37 26 60 -7 13 -33 45 -58
72 -54 55 -42 60 37 16z m729 -204 c41 -34 47 -66 23 -121 -22 -49 -138 -169
-242 -249 -61 -47 -59 -44 46 66 113 119 171 204 160 238 -3 11 -21 39 -40 63
-19 23 -35 46 -35 51 0 11 52 -17 88 -48z"/>
</g>
</svg>
