<?xml version="1.0" encoding="UTF-8"?>
<svg width="143px" height="174px" viewBox="0 0 143 174" version="1.1" xmlns="http://www.w3.org/2000/svg" xmlns:xlink="http://www.w3.org/1999/xlink">
    <!-- Generator: Sketch 48.2 (47327) - http://www.bohemiancoding.com/sketch -->
    <title>finish-flag</title>
    <desc>Created with Sketch.</desc>
    <defs></defs>
    <g id="HMIP-Process" stroke="none" stroke-width="1" fill="none" fill-rule="evenodd" transform="translate(-250.000000, -1596.000000)">
        <g id="finish-flag" transform="translate(250.000000, 1596.000000)" fill="#000000" fill-rule="nonzero">
            <path d="M139.957447,8.41935484 L15.212766,8.41935484 L15.212766,2.80645161 C15.212766,1.25658871 13.8504628,0 12.1702128,0 L3.04255319,0 C1.36230319,0 0,1.25658871 0,2.80645161 L0,171.193548 C0,172.743411 1.36230319,174 3.04255319,174 L12.1702128,174 C13.8504628,174 15.212766,172.743411 15.212766,171.193548 L15.212766,103.83871 L139.957447,103.83871 C141.637697,103.83871 143,102.582121 143,101.032258 L143,11.2258065 C143,9.67594355 141.637697,8.41935484 139.957447,8.41935484 Z M9.12765957,168.387097 L6.08510638,168.387097 L6.08510638,5.61290323 L9.12765957,5.61290323 L9.12765957,168.387097 Z M136.914894,42.0967742 L106.489362,42.0967742 L106.489362,70.1612903 L136.914894,70.1612903 L136.914894,98.2258065 L106.489362,98.2258065 L106.489362,70.1612903 L76.0638298,70.1612903 L76.0638298,98.2258065 L45.6382979,98.2258065 L45.6382979,70.1612903 L15.212766,70.1612903 L15.212766,42.0967742 L45.6382979,42.0967742 L45.6382979,14.0322581 L76.0638298,14.0322581 L76.0638298,42.0967742 L106.489362,42.0967742 L106.489362,14.0322581 L136.914894,14.0322581 L136.914894,42.0967742 Z" id="Shape"></path>
            <rect id="Rectangle-path" x="46" y="42" width="31" height="28"></rect>
        </g>
    </g>
</svg>