<?xml version="1.0" encoding="UTF-8"?>
<svg width="136px" height="118px" viewBox="0 0 136 118" version="1.1" xmlns="http://www.w3.org/2000/svg" xmlns:xlink="http://www.w3.org/1999/xlink">
    <!-- Generator: Sketch 48.2 (47327) - http://www.bohemiancoding.com/sketch -->
    <title>laptop</title>
    <desc>Created with Sketch.</desc>
    <defs></defs>
    <g id="Landing-Splash---Annotated" stroke="none" stroke-width="1" fill="none" fill-rule="evenodd" transform="translate(-648.000000, -786.000000)">
        <g id="laptop" transform="translate(648.000000, 786.000000)" fill="#B4B4B4" fill-rule="nonzero">
            <path d="M8.82772417,99 L127.172276,99 C130.943222,99 134,95.4997739 134,91.1840498 L134,7.81595042 C134,3.49819005 130.943222,0 127.172276,0 L8.82772417,0 C5.05766771,0 2,3.49819005 2,7.81595042 L2,91.1840498 C2,95.4997739 5.05766771,99 8.82772417,99 Z M7,7.6177073 C7,6.17024505 8.02008218,5 9.27782729,5 L127.722173,5 C128.980808,5 130,6.17024505 130,7.6177073 L130,91.3822927 C130,92.8277089 128.980808,94 127.722173,94 L9.27782729,94 C8.02008218,94 7,92.8277089 7,91.3822927 L7,7.6177073 Z" id="Shape"></path>
            <path d="M13.2400524,88 L120.760823,88 C121.99771,88 123,86.8356239 123,85.3999663 L123,12.6000339 C123,11.1633601 121.99771,10 120.760823,10 L13.2400524,10 C12.0031653,10 11,11.1633601 11,12.6000339 L11,85.3999663 C11,86.8356239 12.0031653,88 13.2400524,88 Z M15.4801049,15.2000676 L118.52077,15.2000676 L118.52077,82.7999324 L15.4801049,82.7999324 L15.4801049,15.2000676 Z" id="Shape"></path>
            <path d="M135.484856,99.9918019 C135.054369,99.3638433 134.411294,99.0000091 133.732788,99.0000091 L81.6003568,99.0000091 C80.3478673,99.0000091 79.3336522,100.213497 79.3336522,101.713384 L79.3336522,104.42782 L56.6666074,104.42782 L56.6666074,101.713384 C56.6666074,100.213497 55.6515063,99.0000091 54.3999028,99.0000091 L2.26658522,99.0000091 C1.58630814,98.9978878 0.941462152,99.364904 0.510974198,99.9960449 C0.0804864702,100.628246 -0.0904687478,101.457746 0.045941093,102.256484 L2.31264564,115.827603 C2.52788962,117.092006 3.45707011,118 4.53328977,118 L131.466084,118 C132.543189,118 133.471484,117.092006 133.687614,115.827603 L135.954319,102.256484 C136.090728,101.455624 135.918001,100.624004 135.484856,99.9918019 Z M129.61038,112.571128 L6.38987931,112.571128 L5.03021086,104.42782 L52.1331983,104.42782 L52.1331983,107.142256 C52.1331983,108.642144 53.1482991,109.856692 54.3999028,109.856692 L81.6003568,109.856692 C82.8519603,109.856692 83.8661754,108.642144 83.8661754,107.142256 L83.8661754,104.42782 L130.967391,104.42782 L129.61038,112.571128 Z" id="Shape"></path>
        </g>
    </g>
</svg>