<?xml version="1.0" encoding="UTF-8"?>
<svg width="35px" height="43px" viewBox="0 0 35 43" version="1.1" xmlns="http://www.w3.org/2000/svg" xmlns:xlink="http://www.w3.org/1999/xlink">
    <!-- Generator: Sketch 48.2 (47327) - http://www.bohemiancoding.com/sketch -->
    <title>Path 5</title>
    <desc>Created with Sketch.</desc>
    <defs></defs>
    <g id="Landing-Splash---Annotated" stroke="none" stroke-width="1" fill="none" fill-rule="evenodd" transform="translate(-560.000000, -847.000000)">
        <path d="M593.041345,858.500366 C590.163674,855.735849 588.097877,851.726949 584.408332,850.206817 C557.576965,839.152 571.05613,869.148612 571.495802,878.491247 C571.705027,882.93709 560.680926,878.411449 560.696408,878.491247 C561.381255,882.021245 568.200868,887.879067 571.495802,889.318966 C574.746063,890.739343 578.426345,890.16809 580.784174,886.582615 C582.633636,883.770199 581.518232,881.971263 582.077313,880.389012 C584.799455,872.685094 577.841462,865.865053 580.784174,860.44063 C581.773094,858.617713 589.547267,860.483074 591.904947,861.716399 C593.01833,862.29882 592.711612,858.863143 594.286042,860.44063 L593.041345,858.500366 Z" id="Path-5" fill="#898989"></path>
    </g>
</svg>