<?xml version="1.0" encoding="UTF-8"?>
<svg width="98px" height="159px" viewBox="0 0 98 159" version="1.1" xmlns="http://www.w3.org/2000/svg" xmlns:xlink="http://www.w3.org/1999/xlink">
    <!-- Generator: Sketch 48.2 (47327) - http://www.bohemiancoding.com/sketch -->
    <title>usb</title>
    <desc>Created with Sketch.</desc>
    <defs></defs>
    <g id="Landing-Splash---Annotated" stroke="none" stroke-width="1" fill="none" fill-rule="evenodd" transform="translate(-1276.000000, -428.000000)">
        <g id="usb" transform="translate(1323.000000, 503.000000) rotate(-25.000000) translate(-1323.000000, -503.000000) translate(1256.000000, 435.000000)" fill="#B4B4B4" fill-rule="nonzero">
            <path d="M73.4462517,38.4922035 C72.3852615,37.432307 70.6664574,37.432307 69.6054671,38.4922035 L46.5586377,61.5635414 L44.6382455,59.6412838 C43.5772553,58.5803251 41.8584512,58.5803251 40.7974609,59.6412838 L2.38643228,98.0906811 C-0.795477427,101.276743 -0.795477427,106.440288 2.38643228,109.62635 L4.30894654,111.548607 L2.38643228,113.474051 C-0.794416233,116.657989 -0.794416233,121.821534 2.38643228,125.005472 L10.0648186,132.692377 C13.2467281,135.877378 18.4042014,135.877378 21.5871721,132.692377 L23.5075645,130.77012 L25.4279569,132.692377 C28.6098663,135.87844 33.7705227,135.87844 36.9513715,132.692377 L75.3666438,94.2429801 C76.4265731,93.1830836 76.4265731,91.4604859 75.3666438,90.3984652 L73.4462517,88.4783317 L96.4941421,65.4080561 C97.5551323,64.3470976 97.5551323,62.6255621 96.4941421,61.5635414 L73.4462517,38.4922035 Z M17.7495705,128.847863 C16.6885803,129.909883 14.9697762,129.909883 13.908786,128.847863 L6.22721684,121.159895 C5.16728783,120.097874 5.16728783,118.376338 6.22721684,117.31538 L8.14760926,115.393122 L19.6699629,126.925605 L17.7495705,128.847863 Z M33.1158918,128.847863 C32.0432306,129.87696 30.3509515,129.87696 29.2772291,128.847863 L6.22933896,105.776525 C5.71900274,105.269941 5.43253524,104.577504 5.43359617,103.857454 C5.43359617,103.13528 5.72006366,102.442842 6.22933896,101.93201 L42.7178534,65.4080561 L69.6075893,92.3239086 L33.1158918,128.847863 Z M69.6054671,84.6338168 L50.3994225,65.4080561 L71.5258596,44.258976 L90.7340263,63.4857987 L69.6054671,84.6338168 Z" id="Shape"></path>
            <polygon id="Shape" points="55.3016187 67.0173886 59.3980349 62.8288019 63.4944511 67.0173886 59.3980349 71.2059754"></polygon>
            <polygon id="Shape" points="63.4944511 76.4417089 67.5897359 72.2531221 71.6872835 76.4417089 67.5897359 80.6302957"></polygon>
            <path d="M45.5568301,103.867256 L35.8389506,103.867256 L50.4040564,89.4485673 L50.4040564,93.0743193 L55.8561212,93.0743193 L55.8561212,82.9348616 C55.857186,81.84292 55.1927156,80.8595403 54.1747129,80.4411033 C53.8414126,80.3114615 53.4878805,80.2513834 53.1300888,80.2608696 L53.1300888,79.583149 L42.2259593,79.583149 L42.2259593,84.9796171 L47.2094873,84.9796171 L25.8697652,106.103838 L25.8697652,93.5918322 L32.780683,86.7534953 L28.9259029,82.9380237 L21.2174074,90.5668588 C20.7052115,91.0727777 20.4187652,91.7599841 20.4177004,92.4745947 L20.4177004,111.500307 L18.4338729,113.464958 L22.2897178,117.28043 L30.3868858,109.263724 L46.6855776,109.263724 C47.4086152,109.263724 48.1018368,108.979144 48.6129678,108.473225 L56.3257228,100.842282 L52.4709426,97.0268107 L45.5568301,103.867256 Z" id="Shape"></path>
            <path d="M119.931092,13.492072 C111.493638,4.83618553 100.026612,-0.021104954 88.0729483,0 L88.0729483,5.42058491 C98.6215775,5.4099981 108.741552,9.69029986 116.19952,17.3160766 C123.658523,24.942912 127.844635,35.2895335 127.83221,46.0744547 L133.133527,46.0744547 C133.156224,33.8497089 128.40375,22.1204325 119.931092,13.492072 Z" id="Shape"></path>
            <path d="M88.1723431,11.5223267 L88.0729483,11.5223267 L88.0907349,16.9966708 C95.9010632,17.0105704 103.392282,20.1732873 108.933273,25.7994588 C114.47845,31.4373916 117.577471,39.1132346 117.53562,47.1055632 L122.892486,47.1216014 C122.905025,33.8538015 115.727683,21.6701783 104.248123,15.4719806 C99.2993145,12.7957533 93.7719247,11.4378592 88.1723431,11.5223267 Z" id="Shape"></path>
            <path d="M88.0729483,20.942934 L88.0729483,26.3011359 C92.9363002,26.2833454 97.6052,28.250776 101.04291,31.7659885 C104.481644,35.2822475 106.405697,40.0553596 106.387275,45.027308 L111.627341,45.027308 C111.644649,38.6342051 109.168965,32.4985425 104.747736,27.9786845 C100.326507,23.4577802 94.3261218,20.9252365 88.0729483,20.942934 Z" id="Shape"></path>
            <path d="M88.1120455,33.5235415 L88.0729483,38.9534328 C92.8305041,38.9460093 96.6899442,42.6048226 96.6910612,47.1216014 L102.410405,47.0834225 C102.401469,39.5961115 96.0141234,33.5267232 88.1276844,33.5086943 L88.1120455,33.5235415 Z" id="Shape"></path>
        </g>
    </g>
</svg>