<?xml version="1.0" encoding="UTF-8"?>
<svg width="107px" height="111px" viewBox="0 0 107 111" version="1.1" xmlns="http://www.w3.org/2000/svg" xmlns:xlink="http://www.w3.org/1999/xlink">
    <!-- Generator: Sketch 48.2 (47327) - http://www.bohemiancoding.com/sketch -->
    <title>worker 4</title>
    <desc>Created with Sketch.</desc>
    <defs></defs>
    <g id="Landing-Splash---Annotated" stroke="none" stroke-width="1" fill="none" fill-rule="evenodd" transform="translate(-1076.000000, -719.000000)">
        <g id="worker-4" transform="translate(1076.000000, 719.000000)">
            <path d="M12.4062957,11.9348281 C16.5173059,6.57100289 20.7451941,3.8890903 25.0899603,3.8890903 C27.8418923,3.8890903 33.8563589,1.88863713 38.0701222,3.8890903 C39.6960892,4.66100616 42.455914,8.40636496 46.3495967,15.1251667 L50.9428836,49.1156629 L5.90920781,49.1156629 L12.4062957,11.9348281 Z" id="Rectangle-27" fill="#898989"></path>
            <ellipse id="Oval-2" fill="#D8D8D8" cx="29" cy="29.5" rx="15" ry="15.5"></ellipse>
            <path d="M29.8034227,21.8975459 C20.1684792,21.3925999 10.4928688,28.0839315 11.0206563,18.0131471 C11.5484437,7.9423627 19.7869649,0.187718482 29.4219084,0.692664474 C39.0568519,1.19761047 48.497977,9.87880569 47.9701896,19.9495901 C47.4424021,30.0203745 39.4383662,22.4024919 29.8034227,21.8975459 Z" id="Oval" fill="#565656"></path>
            <rect id="Rectangle-16" fill="#565656" x="11.983366" y="43.6282793" width="36.6576226" height="55.3717207" rx="10"></rect>
            <path d="M14.7154124,75.8222149 L66.3045445,84.0549505 L66.3045445,97.6652137 C54.1018648,98.2760264 44.7393106,98.6109868 38.2168819,98.6700949 C31.6944532,98.7292031 25.9895995,98.530788 21.1023207,98.0748495 C16.8643772,95.5380193 14.4291727,93.7687396 13.7967071,92.7670106 C12.881097,91.3168239 10.8427467,88.8426856 10.8838293,88.0532562 C10.8838293,88.0532562 10.8702357,83.1331182 11.9701578,79.6007337 C12.2930728,78.5636967 13.2081576,77.3041905 14.7154124,75.8222149 Z" id="Rectangle-24" fill="#565656" transform="translate(38.593881, 87.251242) rotate(-36.000000) translate(-38.593881, -87.251242) "></path>
            <path d="M40.8105129,84.3228233 C41.923955,82.4273938 42.820131,81.4406978 43.499041,81.3627351 C43.6841727,81.3414754 44.5694682,80.9818407 46.2640296,80.9186813 C49.2771548,80.8063765 61.1222083,80.8047691 81.7991903,80.9138591 C79.43734,83.9237587 77.9338923,86.1527115 77.2888473,87.6007176 C76.4679584,89.4434604 75.5844823,88.7047781 74.5620216,91.643403 C74.1891669,92.7150141 66.245458,91.9128528 60.0616186,92.0312106 C56.5167865,92.0990581 51.0370175,92.4974347 43.6223116,93.2263402 C42.4327871,90.8320174 41.673868,89.1150561 41.3455545,88.0754565 C41.017241,87.0358569 40.8388938,85.7849792 40.8105129,84.3228233 Z" id="Rectangle-25" fill="#565656" transform="translate(61.304852, 87.029785) rotate(96.000000) translate(-61.304852, -87.029785) "></path>
            <rect id="Rectangle-23" fill="#D8D8D8" transform="translate(63.527478, 104.849361) rotate(190.000000) translate(-63.527478, -104.849361) " x="52.527478" y="100.849361" width="22" height="8" rx="4"></rect>
            <rect id="Rectangle-26" fill="#565656" transform="translate(77.366006, 92.028693) rotate(31.000000) translate(-77.366006, -92.028693) " x="58.8660061" y="86.5286928" width="37" height="11"></rect>
            <rect id="Rectangle-23" fill="#D8D8D8" transform="translate(98.691371, 99.518601) rotate(125.000000) translate(-98.691371, -99.518601) " x="87.6913713" y="95.5186013" width="22" height="8" rx="4"></rect>
            <path d="M7.68025702,54.6466541 C7.33920512,51.8155204 8.45541553,49.7274022 11.0288883,48.3822994 C12.087502,47.8289831 13.2674489,47.0884133 14.2303428,47.5222048 C14.6672171,47.7190202 17.0385183,48.5863692 17.5438982,49.3479661 C17.9154004,49.9078119 18.2639717,51.2121364 18.5896122,53.2609396 L18.5896122,107.721676 L8.58961223,107.721676 L7.68025702,54.6466541 Z" id="Rectangle-21" fill="#D8D8D8" transform="translate(13.105003, 77.556675) rotate(15.000000) translate(-13.105003, -77.556675) "></path>
        </g>
    </g>
</svg>