<?xml version="1.0" encoding="UTF-8"?>
<svg width="71px" height="153px" viewBox="0 0 71 153" version="1.1" xmlns="http://www.w3.org/2000/svg" xmlns:xlink="http://www.w3.org/1999/xlink">
    <!-- Generator: Sketch 48.2 (47327) - http://www.bohemiancoding.com/sketch -->
    <title>worker 2</title>
    <desc>Created with Sketch.</desc>
    <defs></defs>
    <g id="Landing-Splash---Annotated" stroke="none" stroke-width="1" fill="none" fill-rule="evenodd" transform="translate(-892.000000, -837.000000)">
        <g id="worker-3" transform="translate(890.000000, 836.000000)">
            <path d="M39,39.5138455 C39.4294508,38.9697685 40.3688732,36.8707637 41.7354256,36.49588 C43.1681675,36.1028386 44.8111289,35.5393769 46.1688881,35.9515192 C46.8895751,36.1702808 47.9741972,37.2970796 49.4227543,39.3319156 L49,68.0975074 L39,68.0975074 L39,39.5138455 Z" id="Rectangle-21" fill="#D8D8D8" transform="translate(44.211377, 51.952461) rotate(-120.000000) translate(-44.211377, -51.952461) "></path>
            <path d="M55.6718128,24.6741459 C56.1012635,24.1686562 57.0406859,22.218518 58.4072384,21.870222 C59.8399803,21.5050561 61.4829417,20.9815565 62.8407009,21.3644687 C63.5613879,21.5677152 64.6460099,22.6145986 66.094567,24.5051189 L65.6718128,51.2305837 L55.6718128,51.2305837 L55.6718128,24.6741459 Z" id="Rectangle-21" fill="#D8D8D8" transform="translate(60.883190, 36.230584) rotate(-154.000000) translate(-60.883190, -36.230584) "></path>
            <ellipse id="Oval-6" fill="#CDCDCD" cx="21.5" cy="30" rx="15.5" ry="15"></ellipse>
            <path d="M19.7602198,21.8579771 C29.021367,21.8579771 37.0765027,28.7739009 37.0765027,19.0717466 C37.0765027,9.36959242 27.5903973,1.50444242 18.3292501,1.50444242 C9.06810293,1.50444242 1.56045974,9.36959242 1.56045974,19.0717466 C1.56045974,28.7739009 10.4990726,21.8579771 19.7602198,21.8579771 Z" id="Oval" fill="#565656" transform="translate(19.318481, 12.875718) rotate(-5.000000) translate(-19.318481, -12.875718) "></path>
            <rect id="Rectangle-16" fill="#565656" x="3" y="44" width="37" height="57" rx="10"></rect>
            <path d="M27.7424001,36.9804086 C28.1718509,36.4363317 29.1112733,34.3373268 30.4778257,33.9624431 C31.9105676,33.5694018 33.553529,33.0059401 34.9112882,33.4180824 C35.6319752,33.636844 36.7165973,34.7636428 38.1651544,36.7984788 L37.7424001,65.5640706 L27.7424001,65.5640706 L27.7424001,36.9804086 Z" id="Rectangle-21" fill="#D8D8D8" transform="translate(32.953777, 49.419024) rotate(-120.000000) translate(-32.953777, -49.419024) "></path>
            <path d="M9.65960699,98.7234423 C10.7760804,96.1950913 12.0158394,94.9309158 13.3788839,94.9309158 C14.1143286,94.9309158 17.4154438,94.572288 18.7198929,95.1860997 C19.4620035,95.5353017 20.4419082,96.7144159 21.659607,98.7234423 L21.1883188,122.967775 L9.51245137,124.826782 L9.65960699,98.7234423 Z" id="Rectangle-23" fill="#565656" transform="translate(15.586029, 109.826782) scale(-1, 1) rotate(10.000000) translate(-15.586029, -109.826782) "></path>
            <path d="M10.6199744,123.860768 C11.257815,121.449421 11.8396289,119.938359 12.3654159,119.327583 C13.341258,118.194004 15.2589078,117.556793 16.0127186,117.556793 C16.7481634,117.556793 18.6014693,118.132297 19.9059184,118.665458 C20.648029,118.968777 21.6279337,119.992965 22.8456324,121.738021 L22.8456324,147.556793 L10.8456324,147.556793 L10.6199744,123.860768 Z" id="Rectangle-23" fill="#565656" transform="translate(16.732803, 132.556793) scale(-1, 1) rotate(-6.000000) translate(-16.732803, -132.556793) "></path>
            <rect id="Rectangle-23" fill="#D8D8D8" x="7" y="146" width="22" height="8" rx="4"></rect>
            <path d="M44.3373161,16.6294632 C44.7667669,16.0471596 45.7061893,13.8006798 47.0727418,13.399457 C48.5054837,12.9788007 50.148445,12.3757505 51.5062042,12.8168497 C52.2268913,13.0509814 53.3115133,14.2569485 54.7600704,16.434751 L54.3373161,47.2213985 L44.3373161,47.2213985 L44.3373161,16.6294632 Z" id="Rectangle-21" fill="#D8D8D8" transform="translate(49.548693, 29.942009) rotate(-157.000000) translate(-49.548693, -29.942009) "></path>
            <path d="M28.3292292,98.2072343 C29.9995567,97.9525082 31.5162428,97.8251452 32.8792873,97.8251452 C33.614732,97.8251452 36.8260622,97.7312641 36.8260622,97.7312641 C36.0679482,97.775173 37.2548875,97.590107 40.3868804,97.1760659 L39.857941,124.184204 L28.1820735,126.176066 L28.3292292,98.2072343 Z" id="Rectangle-23" fill="#565656" transform="translate(34.284477, 111.676066) scale(-1, 1) rotate(18.000000) translate(-34.284477, -111.676066) "></path>
            <path d="M32.5344402,123.650635 C33.1722809,121.319666 33.7540947,119.858973 34.2798817,119.268557 C35.2557239,118.172764 37.1733737,117.556793 37.9271845,117.556793 C38.6626292,117.556793 40.5159351,118.113113 41.8203842,118.628503 C42.5624948,118.921711 43.5423995,119.911759 44.7600983,121.598646 L44.7600983,146.556793 L32.7600983,146.556793 L32.5344402,123.650635 Z" id="Rectangle-23" fill="#565656" transform="translate(38.647269, 132.056793) scale(-1, 1) rotate(2.000000) translate(-38.647269, -132.056793) "></path>
            <rect id="Rectangle-23" fill="#D8D8D8" x="30" y="146" width="22" height="8" rx="4"></rect>
        </g>
    </g>
</svg>