<?xml version="1.0" encoding="UTF-8"?>
<svg width="73px" height="153px" viewBox="0 0 73 153" version="1.1" xmlns="http://www.w3.org/2000/svg" xmlns:xlink="http://www.w3.org/1999/xlink">
    <!-- Generator: Sketch 48.2 (47327) - http://www.bohemiancoding.com/sketch -->
    <title>worker 1</title>
    <desc>Created with Sketch.</desc>
    <defs></defs>
    <g id="Landing-Splash---Annotated" stroke="none" stroke-width="1" fill="none" fill-rule="evenodd" transform="translate(-587.000000, -836.000000)">
        <g id="worker-1" transform="translate(621.500000, 912.500000) rotate(-2.000000) translate(-621.500000, -912.500000) translate(583.000000, 835.000000)">
            <ellipse id="Oval-6" fill="#CDCDCD" cx="26.5" cy="30" rx="15.5" ry="15"></ellipse>
            <path d="M28.4477579,21.5839401 C37.8351016,21.5839401 46,28.5781533 46,18.7661691 C46,8.95418484 36.3846329,1 26.9972892,1 C17.6099456,1 10,8.95418484 10,18.7661691 C10,28.5781533 19.0604143,21.5839401 28.4477579,21.5839401 Z" id="Oval" fill="#565656" transform="translate(28.000000, 12.500000) rotate(3.000000) translate(-28.000000, -12.500000) "></path>
            <rect id="Rectangle-16" fill="#565656" x="8" y="44" width="37" height="57" rx="10"></rect>
            <path d="M13.505685,92.5041105 C14.0083626,90.5310754 14.4204792,89.345705 14.7420347,88.9479994 C15.5531947,87.9447425 16.0774675,86.6812765 16.6202841,86.431044 C18.111491,85.7436141 20.0441987,86.084537 20.7539602,86.084537 C22.0817048,86.084537 23.4970514,87.5564677 25,90.500329 L23.4826451,116.21601 C22.8671485,117.020843 22.4765209,117.453176 22.3107625,117.513011 C22.1450041,117.572846 19.0414166,118.401842 13,120 L13.505685,92.5041105 Z" id="Rectangle-21" fill="#565656" transform="translate(19.000000, 103.000000) rotate(-30.000000) translate(-19.000000, -103.000000) "></path>
            <path d="M12,112.396463 C14.5662022,109.465488 16.5598591,108 17.9809705,108 C19.0330475,108 21.3327726,108.049421 22.6493586,108.865324 C23.1817927,109.19528 23.3886977,109.573647 23.2700737,110.000426 L24,139 L12,139 L12,112.396463 Z" id="Rectangle-22" fill="#565656" transform="translate(18.000000, 123.500000) rotate(29.000000) translate(-18.000000, -123.500000) "></path>
            <rect id="Rectangle-23" fill="#D8D8D8" transform="translate(13.000000, 140.000000) rotate(20.000000) translate(-13.000000, -140.000000) " x="2" y="136" width="22" height="8" rx="4"></rect>
            <path d="M36.008342,97.2196025 C36.7998908,96.5255612 38.7615453,97.6737869 39.2791252,97.9501764 C39.7852496,98.2204485 40.6111224,98.4083316 41.4019926,98.6984639 C42.3301721,99.0389685 43.3641262,99.0230534 43.7380879,99.0230534 C45.0337319,99.0230534 46.4543693,98.923694 48,98.7249753 L46.5223489,117.67314 L36,120 L36.008342,97.2196025 Z" id="Rectangle-21" fill="#565656" transform="translate(42.000000, 108.500000) rotate(-28.000000) translate(-42.000000, -108.500000) "></path>
            <path d="M35,115.130598 C37.5788886,112.38482 39.5788886,111.011931 41,111.011931 C42.052077,111.011931 43.6142632,110.848223 44.9308492,111.733618 C45.4632833,112.091677 45.8080516,112.594316 45.9651542,113.241535 L47,144 L35,144 L35,115.130598 Z" id="Rectangle-22" fill="#565656" transform="translate(41.000000, 127.500000) rotate(20.000000) translate(-41.000000, -127.500000) "></path>
            <rect id="Rectangle-23" fill="#D8D8D8" transform="translate(37.000000, 148.000000) rotate(17.000000) translate(-37.000000, -148.000000) " x="26" y="144" width="22" height="8" rx="4"></rect>
            <path d="M27.0174825,54.8671225 C27.519914,53.8041668 27.9344904,53.1228226 28.2612116,52.82309 C28.9041159,52.2332925 30.1923944,51.2744941 30.615673,51.0893636 C31.4700509,50.715682 33.2020101,51.6347805 33.6829316,51.6347805 C34.7936781,51.6347805 35.8993675,52.7122278 37,54.8671225 L37,87 L27,86.7584978 L27.0174825,54.8671225 Z" id="Rectangle-24" fill="#D8D8D8" transform="translate(32.000000, 69.000000) rotate(-49.000000) translate(-32.000000, -69.000000) "></path>
            <path d="M44.8261012,59.2247265 C44.4360715,58.2532929 44.0647938,57.1042092 44.0945216,56.6983902 C44.1530184,55.8998416 43.9230983,54.0479136 44.0945216,53.6311541 C44.4405357,52.7899347 43.7621608,50.0952344 44.0945216,49.7345526 C44.8621492,48.9015144 43.7440254,48.6189237 45.9806604,49.7345526 L67,66.9714676 L60.429151,73.0587288 L44.8261012,59.2247265 Z" id="Rectangle-24" fill="#D8D8D8"></path>
            <path d="M60.9041246,72.5793107 C60.7439947,72.4914856 60.6527105,72.4270574 60.5966846,72.3728484 C60.4691556,72.2494553 60.5243102,72.1790116 60.3660178,72.0061023 C59.9176998,71.5163861 59.952152,70.6888661 59.7158,70.3343895 C59.2387288,69.6188867 58.7569442,67.9039423 58.5492911,67.4680082 C58.0696912,66.4611655 57.9041544,65.2889254 58.0526806,63.9512879 L68,59 C68.2512501,59.8769314 68.3768751,60.5249326 68.3768751,60.9440037 C68.3768751,62.9699496 68.3768751,63.8904288 68.3768751,65.2557391 C68.3768751,65.678372 69.9335911,67.067529 71.0353034,66.4968179 C71.4292538,66.2927429 71.5543321,66.2592907 71.5171225,66.4968179 C71.4209405,67.1107938 70.0761758,68.1139056 67.4828283,69.5061533 L60.9041246,72.5793107 Z" id="Rectangle-24" fill="#D8D8D8"></path>
            <path d="M53.0174825,64.8671225 C53.519914,63.8041668 53.9344904,63.1228226 54.2612116,62.82309 C54.9041159,62.2332925 56.1923944,61.2744941 56.615673,61.0893636 C57.4700509,60.715682 59.2020101,61.6347805 59.6829316,61.6347805 C60.7936781,61.6347805 61.8993675,62.7122278 63,64.8671225 L63,97 L53,96.7584978 L53.0174825,64.8671225 Z" id="Rectangle-24" fill="#D8D8D8" transform="translate(58.000000, 79.000000) rotate(-91.000000) translate(-58.000000, -79.000000) "></path>
        </g>
    </g>
</svg>