<?xml version="1.0" encoding="UTF-8"?>
<svg width="413px" height="103px" viewBox="0 0 413 103" version="1.1" xmlns="http://www.w3.org/2000/svg" xmlns:xlink="http://www.w3.org/1999/xlink">
    <!-- Generator: Sketch 48.2 (47327) - http://www.bohemiancoding.com/sketch -->
    <title>differently.</title>
    <desc>Created with Sketch.</desc>
    <defs></defs>
    <g id="Animation" stroke="none" stroke-width="1" fill="none" fill-rule="evenodd">
        <path d="M18.96875,77.8125 C21.9355617,77.8125 24.9980311,77.1744855 28.15625,75.8984375 L28.15625,37.3779297 C25.4127467,35.7509684 22.3502773,34.9375 18.96875,34.9375 C17.7565044,34.9375 16.7356812,35.2325817 15.90625,35.8227539 C15.0768188,36.4129261 14.4547547,37.2742456 14.0400391,38.4067383 C13.6253234,39.5392309 13.3222666,40.7036073 13.1308594,41.8999023 C12.9394522,43.0961974 12.8277996,44.5078044 12.7958984,46.1347656 C12.6682936,53.2806347 12.6682936,58.943013 12.7958984,63.1220703 C12.8277996,65.1637472 12.9394522,66.9820884 13.1308594,68.5771484 C13.3222666,70.1722085 13.6332986,71.7114184 14.0639648,73.1948242 C14.4946311,74.6782301 15.1246703,75.8186809 15.9541016,76.6162109 C16.7835328,77.413741 17.7884056,77.8125 18.96875,77.8125 Z M15.90625,87.8613281 C13.1946479,87.8613281 10.8260192,87.0957108 8.80029297,85.5644531 C6.77456669,84.0331955 5.21143128,81.9596485 4.11083984,79.34375 C3.0102484,76.7278515 2.18880479,74.0083149 1.64648438,71.1850586 C1.10416396,68.3618023 0.769206367,65.3232585 0.641601562,62.0693359 C0.57779916,60.5699795 0.57779916,56.9013964 0.641601562,51.0634766 C0.705403965,48.9579973 0.801106133,47.0519291 0.928710938,45.3452148 C1.05631574,43.6385006 1.27164562,41.8600353 1.57470703,40.0097656 C1.87776844,38.159496 2.26057711,36.5245839 2.72314453,35.1049805 C3.18571195,33.685377 3.79980086,32.3136459 4.56542969,30.9897461 C5.33105852,29.6658462 6.22427875,28.5732465 7.24511719,27.7119141 C8.26595563,26.8505816 9.49413345,26.1647161 10.9296875,25.6542969 C12.3652416,25.1438777 13.9602777,24.8886719 15.7148438,24.8886719 C17.0865954,24.8886719 18.3705995,25.072101 19.5668945,25.4389648 C20.7631896,25.8058287 21.9036404,26.3800417 22.9882813,27.1616211 C24.0729221,27.9432005 24.9422168,28.6370412 25.5961914,29.2431641 C26.250166,29.8492869 27.1035104,30.7106064 28.15625,31.8271484 L28.15625,1.29785156 L40.40625,1.29785156 L40.40625,87 L28.15625,87 L28.15625,81.4492188 C26.3059803,83.3632908 24.4238377,84.9104759 22.5097656,86.0908203 C20.5956936,87.2711648 18.3945437,87.8613281 15.90625,87.8613281 Z M52.3691406,16.5625 L52.3691406,4.3125 L64.6191406,4.3125 L64.6191406,16.5625 L52.3691406,16.5625 Z M52.3691406,87 L52.3691406,25.75 L64.6191406,25.75 L64.6191406,87 L52.3691406,87 Z M79.5488281,87 L79.5488281,34.9375 L73.4238281,34.9375 L73.4238281,25.75 L79.5488281,25.75 L79.5488281,23.4052734 C79.5488281,20.8212761 79.6445303,18.6281015 79.8359375,16.8256836 C80.0273447,15.0232657 80.4181286,13.2846763 81.0083008,11.6098633 C81.598473,9.93505022 82.3959911,8.59521987 83.4008789,7.59033203 C84.4057667,6.58544419 85.7455971,5.78792613 87.4204102,5.19775391 C89.0952232,4.60758168 91.0969936,4.3125 93.4257813,4.3125 C95.4036557,4.3125 97.9238128,4.50390434 100.986328,4.88671875 L100.986328,13.9785156 C100.667316,13.9466144 100.013351,13.8588874 99.0244141,13.715332 C98.0354768,13.5717766 97.3177106,13.5 96.8710938,13.5 C94.8294169,13.5 93.4736362,14.1459896 92.8037109,15.4379883 C92.1337857,16.7299869 91.7988281,18.6360551 91.7988281,21.15625 L91.7988281,25.75 L100.986328,25.75 L100.986328,34.9375 L91.7988281,34.9375 L91.7988281,87 L79.5488281,87 Z M107.589844,87 L107.589844,34.9375 L101.464844,34.9375 L101.464844,25.75 L107.589844,25.75 L107.589844,23.4052734 C107.589844,20.8212761 107.685546,18.6281015 107.876953,16.8256836 C108.06836,15.0232657 108.459144,13.2846763 109.049316,11.6098633 C109.639489,9.93505022 110.437007,8.59521987 111.441895,7.59033203 C112.446782,6.58544419 113.786613,5.78792613 115.461426,5.19775391 C117.136239,4.60758168 119.138009,4.3125 121.466797,4.3125 C123.444671,4.3125 125.964828,4.50390434 129.027344,4.88671875 L129.027344,13.9785156 C128.708332,13.9466144 128.054367,13.8588874 127.06543,13.715332 C126.076492,13.5717766 125.358726,13.5 124.912109,13.5 C122.870432,13.5 121.514652,14.1459896 120.844727,15.4379883 C120.174801,16.7299869 119.839844,18.6360551 119.839844,21.15625 L119.839844,25.75 L129.027344,25.75 L129.027344,34.9375 L119.839844,34.9375 L119.839844,87 L107.589844,87 Z M152.043945,87.8613281 C149.077134,87.8613281 146.50115,87.3509166 144.315918,86.3300781 C142.130686,85.3092397 140.392096,83.9773845 139.100098,82.3344727 C137.808099,80.6915608 136.76335,78.5861131 135.96582,76.0180664 C135.16829,73.4500197 134.618003,70.8820115 134.314941,68.3139648 C134.01188,65.7459181 133.828451,62.7552254 133.764648,59.3417969 C133.668945,56.662096 133.668945,53.9824353 133.764648,51.3027344 C133.860352,48.1126143 134.075682,45.2814251 134.410645,42.809082 C134.745607,40.3367389 135.327795,37.9362096 136.157227,35.6074219 C136.986658,33.2786342 138.063307,31.3645908 139.387207,29.8652344 C140.711107,28.3658779 142.449696,27.1616256 144.603027,26.2524414 C146.756358,25.3432572 149.26854,24.8886719 152.139648,24.8886719 C154.755547,24.8886719 157.060374,25.2316046 159.054199,25.9174805 C161.048024,26.6033563 162.706862,27.6401298 164.030762,29.027832 C165.354662,30.4155343 166.455236,31.9547442 167.33252,33.6455078 C168.209803,35.3362715 168.871743,37.3858929 169.318359,39.7944336 C169.764976,42.2029743 170.076008,44.5716029 170.251465,46.9003906 C170.426921,49.2291783 170.514648,51.908839 170.514648,54.9394531 L170.514648,56.375 L146.014648,56.375 L146.014648,61.3994141 C145.950846,62.5797585 145.942871,63.7999611 145.990723,65.0600586 C146.038574,66.320156 146.094401,67.556309 146.158203,68.7685547 C146.222006,69.9808003 146.39746,71.1372015 146.68457,72.237793 C146.971681,73.3383844 147.322589,74.3033813 147.737305,75.1328125 C148.15202,75.9622437 148.734208,76.6162085 149.483887,77.0947266 C150.233565,77.5732446 151.11881,77.8125 152.139648,77.8125 C153.415696,77.8125 154.46842,77.5652694 155.297852,77.0708008 C156.127283,76.5763322 156.741372,75.8346404 157.140137,74.8457031 C157.538902,73.8567659 157.818033,72.8678435 157.977539,71.8789062 C158.137045,70.889969 158.232747,69.6458408 158.264648,68.1464844 L158.264648,65.5625 L170.418945,65.5625 L170.418945,68.0029297 C170.131835,74.5426759 168.520848,79.4872879 165.585938,82.8369141 C162.651027,86.1865402 158.137075,87.8613281 152.043945,87.8613281 Z M146.014648,50.25 L158.168945,50.25 L158.168945,46.5654297 C158.137044,44.9384684 158.041342,43.5188863 157.881836,42.3066406 C157.72233,41.094395 157.443199,39.8821675 157.044434,38.6699219 C156.645669,37.4576762 156.03158,36.5325553 155.202148,35.8945313 C154.372717,35.2565072 153.351894,34.9375 152.139648,34.9375 C150.895502,34.9375 149.850753,35.2724576 149.005371,35.9423828 C148.159989,36.612308 147.537925,37.5773049 147.13916,38.8374023 C146.740395,40.0974998 146.461264,41.3336528 146.301758,42.5458984 C146.142252,43.7581441 146.04655,45.209627 146.014648,46.9003906 L146.014648,50.25 Z M179.367188,87 L179.367188,25.75 L191.617188,25.75 L191.617188,33.9326172 C192.861334,31.5081259 194.6717,29.394703 197.04834,27.5922852 C199.424979,25.7898673 202.064764,24.8886719 204.967773,24.8886719 C205.063477,24.8886719 205.717442,24.9524733 206.929688,25.0800781 L206.929688,38.6220703 C204.664702,37.7288367 202.399751,37.2822266 200.134766,37.2822266 C197.58267,37.2822266 195.525073,38.0478439 193.961914,39.5791016 C192.398755,41.1103592 191.617188,43.1360551 191.617188,45.65625 L191.617188,87 L179.367188,87 Z M229.37207,87.8613281 C226.405259,87.8613281 223.829275,87.3509166 221.644043,86.3300781 C219.458811,85.3092397 217.720221,83.9773845 216.428223,82.3344727 C215.136224,80.6915608 214.091475,78.5861131 213.293945,76.0180664 C212.496415,73.4500197 211.946128,70.8820115 211.643066,68.3139648 C211.340005,65.7459181 211.156576,62.7552254 211.092773,59.3417969 C210.99707,56.662096 210.99707,53.9824353 211.092773,51.3027344 C211.188477,48.1126143 211.403807,45.2814251 211.73877,42.809082 C212.073732,40.3367389 212.65592,37.9362096 213.485352,35.6074219 C214.314783,33.2786342 215.391432,31.3645908 216.715332,29.8652344 C218.039232,28.3658779 219.777821,27.1616256 221.931152,26.2524414 C224.084483,25.3432572 226.596665,24.8886719 229.467773,24.8886719 C232.083672,24.8886719 234.388499,25.2316046 236.382324,25.9174805 C238.376149,26.6033563 240.034987,27.6401298 241.358887,29.027832 C242.682787,30.4155343 243.783361,31.9547442 244.660645,33.6455078 C245.537928,35.3362715 246.199868,37.3858929 246.646484,39.7944336 C247.093101,42.2029743 247.404133,44.5716029 247.57959,46.9003906 C247.755046,49.2291783 247.842773,51.908839 247.842773,54.9394531 L247.842773,56.375 L223.342773,56.375 L223.342773,61.3994141 C223.278971,62.5797585 223.270996,63.7999611 223.318848,65.0600586 C223.366699,66.320156 223.422526,67.556309 223.486328,68.7685547 C223.550131,69.9808003 223.725585,71.1372015 224.012695,72.237793 C224.299806,73.3383844 224.650714,74.3033813 225.06543,75.1328125 C225.480145,75.9622437 226.062333,76.6162085 226.812012,77.0947266 C227.56169,77.5732446 228.446935,77.8125 229.467773,77.8125 C230.743821,77.8125 231.796545,77.5652694 232.625977,77.0708008 C233.455408,76.5763322 234.069497,75.8346404 234.468262,74.8457031 C234.867027,73.8567659 235.146158,72.8678435 235.305664,71.8789062 C235.46517,70.889969 235.560872,69.6458408 235.592773,68.1464844 L235.592773,65.5625 L247.74707,65.5625 L247.74707,68.0029297 C247.45996,74.5426759 245.848973,79.4872879 242.914063,82.8369141 C239.979152,86.1865402 235.4652,87.8613281 229.37207,87.8613281 Z M223.342773,50.25 L235.49707,50.25 L235.49707,46.5654297 C235.465169,44.9384684 235.369467,43.5188863 235.209961,42.3066406 C235.050455,41.094395 234.771324,39.8821675 234.372559,38.6699219 C233.973794,37.4576762 233.359705,36.5325553 232.530273,35.8945313 C231.700842,35.2565072 230.680019,34.9375 229.467773,34.9375 C228.223627,34.9375 227.178878,35.2724576 226.333496,35.9423828 C225.488114,36.612308 224.86605,37.5773049 224.467285,38.8374023 C224.06852,40.0974998 223.789389,41.3336528 223.629883,42.5458984 C223.470377,43.7581441 223.374675,45.209627 223.342773,46.9003906 L223.342773,50.25 Z M256.695312,87 L256.695312,25.75 L268.945312,25.75 L268.945312,32.3535156 C270.763681,30.6946532 272.247065,29.4265994 273.395508,28.5493164 C274.543951,27.6720334 276.131012,26.8426146 278.156738,26.0610352 C280.182465,25.2794557 282.343739,24.8886719 284.640625,24.8886719 C287.256523,24.8886719 289.377922,25.8456936 291.004883,27.7597656 C292.631844,29.6738377 293.445312,32.0185408 293.445312,34.7939453 L293.445312,87 L281.195312,87 L281.195312,41.0625 C281.195312,38.9251195 280.892256,37.3699593 280.286133,36.3969727 C279.68001,35.423986 278.451832,34.9375 276.601562,34.9375 C275.548823,34.9375 274.504074,35.1528299 273.467285,35.5834961 C272.430496,36.0141623 271.656904,36.4129213 271.146484,36.7797852 C270.636065,37.146649 269.902349,37.7288372 268.945312,38.5263672 L268.945312,87 L256.695312,87 Z M321.151367,87.8613281 C316.334286,87.8613281 312.833181,86.6331503 310.647949,84.1767578 C308.462717,81.7203653 307.338216,78.0039311 307.274414,73.0273438 L307.274414,34.9375 L301.149414,34.9375 L301.149414,25.75 L307.274414,25.75 L307.274414,4.3125 L319.524414,4.3125 L319.524414,25.75 L328.711914,25.75 L328.711914,34.9375 L319.524414,34.9375 L319.524414,70.6826172 C319.524414,73.1390097 319.859372,74.9414005 320.529297,76.0898438 C321.199222,77.238287 322.555003,77.8125 324.59668,77.8125 C325.489913,77.8125 326.861644,77.6529964 328.711914,77.3339844 L328.711914,87.2871094 C325.649399,87.6699238 323.129242,87.8613281 321.151367,87.8613281 Z M337.708008,87 L337.708008,1.25 L349.958008,1.25 L349.958008,87 L337.708008,87 Z M359.289063,102.3125 L359.289063,93.125 C361.713554,93.125 363.651523,92.9654964 365.103027,92.6464844 C366.554532,92.3274724 367.647132,91.7612345 368.380859,90.9477539 C369.114587,90.1342733 369.585123,89.241053 369.79248,88.2680664 C369.999838,87.2950798 370.103516,85.9472742 370.103516,84.2246094 L356.226563,25.75 L368.476563,25.75 C373.229841,52.0046886 375.79785,66.2962123 376.180664,68.625 C376.850589,64.3183378 377.608231,59.78046 378.453613,55.0112305 C379.298995,50.2420009 380.256017,44.9783817 381.324707,39.2202148 C382.393397,33.462048 383.214841,28.9720213 383.789063,25.75 L396.039063,25.75 L380.726563,90.0625 C379.705724,94.496767 377.552425,97.6469633 374.266602,99.5131836 C370.980778,101.379404 366.403024,102.3125 360.533203,102.3125 L359.289063,102.3125 Z M400.058594,87 L400.058594,74.75 L412.308594,74.75 L412.308594,87 L400.058594,87 Z" id="differently." stroke="#FFFFFF"></path>
    </g>
</svg>