<?xml version="1.0" encoding="UTF-8"?>
<svg width="190px" height="190px" viewBox="0 0 190 190" version="1.1" xmlns="http://www.w3.org/2000/svg" xmlns:xlink="http://www.w3.org/1999/xlink">
    <!-- Generator: Sketch 48.2 (47327) - http://www.bohemiancoding.com/sketch -->
    <title>light-bulb</title>
    <desc>Created with Sketch.</desc>
    <defs></defs>
    <g id="HMIP-Process" stroke="none" stroke-width="1" fill="none" fill-rule="evenodd" transform="translate(0.000000, -72.000000)">
        <g id="light-bulb" transform="translate(0.000000, 72.000000)" fill="#000000" fill-rule="nonzero">
            <path d="M104.500139,124 C106.251322,124 107.666667,122.566379 107.666667,120.800135 L107.666667,76.00015 L117.16662,76.00015 C125.896929,76.00015 133,68.8226724 133,60.000075 C133,51.1778526 125.8973,44 117.16662,44 C108.436311,44 101.333241,51.1774776 101.333241,60.000075 L101.333241,69.600045 L88.6667594,69.600045 L88.6667594,60.000075 C88.6667594,51.1778526 81.5640597,44 72.8333797,44 C64.1030708,44 57,51.1774776 57,60.000075 C57,68.8222974 64.1026997,76.00015 72.8333797,76.00015 L82.3333333,76.00015 L82.3333333,120.800135 C82.3333333,122.566379 83.7520178,124 85.4998608,124 C87.2477039,124 88.6663883,122.566379 88.6663883,120.800135 L88.6663883,76.00015 L101.332869,76.00015 L101.332869,120.800135 C101.333612,122.566379 102.748956,124 104.500139,124 Z M107.666667,60.000075 C107.666667,54.7073415 111.929029,50.400105 117.16662,50.400105 C122.404212,50.400105 126.666574,54.7073415 126.666574,60.000075 C126.666574,65.2928085 122.404212,69.600045 117.16662,69.600045 L107.666667,69.600045 L107.666667,60.000075 Z M82.3337044,69.600045 L72.8337508,69.600045 C67.5961592,69.600045 63.3337972,65.2928085 63.3337972,60.000075 C63.3337972,54.7073415 67.5961592,50.400105 72.8337508,50.400105 C78.0713424,50.400105 82.3337044,54.7073415 82.3337044,60.000075 L82.3337044,69.600045 Z" id="Shape"></path>
            <path d="M23.1640615,6.41880104 L35.6437558,16.2816368 C36.2565467,16.7665409 36.9999951,17 37.7400052,17 C38.6691246,17 39.5948058,16.628408 40.2370137,15.9042892 C41.3942107,14.6056957 41.2150342,12.6689568 39.8358725,11.5793613 L27.3565602,1.71616585 C25.9773985,0.629448117 23.9235555,0.798517079 22.7633023,2.0938731 C21.6057233,3.39534439 21.7848997,5.32920554 23.1640615,6.41880104 Z" id="Shape"></path>
            <path d="M24.8368764,34.7218919 L9.40872743,29.194625 C7.70389792,28.5866749 5.82200325,29.4500853 5.19765611,31.1287704 C4.58023761,32.8074556 5.45709505,34.6639017 7.16192457,35.275263 L22.5900735,40.8025299 C22.9611405,40.9351874 23.3391361,41 23.7132825,41 C25.0535887,41 26.3146006,40.1816931 26.8007599,38.8687635 C27.4220277,37.1896993 26.5417059,35.3332532 24.8368764,34.7218919 Z" id="Shape"></path>
            <path d="M152.262615,17 C152.999002,17 153.742264,16.7637571 154.351846,16.2819222 L166.834904,6.41689267 C168.21372,5.32773012 168.395907,3.3946374 167.235945,2.09368326 C166.088587,0.801718571 164.032203,0.626963537 162.646894,1.71612608 L150.163836,11.5811556 C148.78502,12.6703182 148.605888,14.6034109 149.762795,15.904365 C150.404842,16.625679 151.330291,17 152.262615,17 Z" id="Shape"></path>
            <path d="M18.8563534,60 L3.14364659,60 C1.40843325,60 0,61.3440759 0,63 C0,64.6559241 1.40843325,66 3.14364659,66 L18.8563534,66 C20.5915667,66 22,64.6559241 22,63 C22,61.3440759 20.5915667,60 18.8563534,60 Z" id="Shape"></path>
            <path d="M184.799387,31.1276305 C184.182067,29.4527419 182.293545,28.5827092 180.592452,29.1973403 L165.163305,34.7267463 C163.455669,35.337967 162.578566,37.1939861 163.19935,38.8722852 C163.685432,40.1852917 164.943163,41 166.286334,41 C166.657342,41 167.038356,40.9386127 167.406285,40.8025753 L182.838511,35.2731693 C184.543068,34.6619486 185.423249,32.8059295 184.799387,31.1276305 Z" id="Shape"></path>
            <path d="M95.5,0 C60.4860196,0 32,28.4113086 32,63.333457 C32,90.06 42.5091055,109.997383 65.0803348,126.077617 C65.188235,126.153691 65.3471087,126.248691 65.4646827,126.311777 C65.6298816,126.400469 69.0462245,128.303438 69.9034728,133.642734 C66.3189545,135.007617 63.750186,138.449883 63.750186,142.5 C63.750186,144.932148 64.6710583,147.152031 66.1820328,148.833457 C64.6706862,150.514883 63.750186,152.734766 63.750186,155.166914 C63.750186,157.599062 64.6710583,159.818574 66.1820328,161.500371 C64.6706862,163.181797 63.750186,165.40168 63.750186,167.833828 C63.750186,173.071445 68.0237773,177.333828 73.2751674,177.333828 C75.0276152,177.333828 76.4500372,175.915137 76.4500372,174.167285 C76.4500372,172.419434 75.0276152,171.000742 73.2751674,171.000742 C71.5256962,171.000742 70.1002977,169.579082 70.1002977,167.834199 C70.1002977,166.089316 71.5256962,164.667656 73.2751674,164.667656 L105.024981,164.667656 C106.780778,164.667656 108.199851,163.248965 108.199851,161.501113 C108.199851,159.753262 106.780778,158.33457 105.024981,158.33457 L73.2751674,158.33457 C71.5256962,158.33457 70.1002977,156.91291 70.1002977,155.168027 C70.1002977,153.423145 71.5256962,152.001484 73.2751674,152.001484 L105.024981,152.001484 C106.780778,152.001484 108.199851,150.582793 108.199851,148.834941 C108.199851,147.08709 106.780778,145.668398 105.024981,145.668398 L73.2751674,145.668398 C71.5256962,145.668398 70.1002977,144.246738 70.1002977,142.501855 C70.1002977,140.756973 71.5256962,139.335312 73.2751674,139.335312 L105.024981,139.335312 C106.780778,139.335312 108.199851,137.916621 108.199851,136.16877 C108.199851,134.420918 106.780778,133.002227 105.024981,133.002227 L76.2342368,133.002227 C75.1102146,125.028535 69.9287736,121.573652 68.6302507,120.82627 C47.687942,105.857461 38.3504837,88.1210352 38.3504837,63.3353125 C38.3504837,31.9062695 63.9886826,6.3353125 95.5003721,6.3353125 C127.012061,6.3353125 152.65026,31.9062695 152.65026,63.3353125 C152.65026,88.1206641 143.31243,105.857461 122.370493,120.82627 C120.91012,121.665312 114.550335,125.924727 114.550335,136.16877 C114.550335,137.916621 115.969408,139.335312 117.725205,139.335312 C119.477652,139.335312 120.900074,140.756973 120.900074,142.501855 C120.900074,144.246738 119.477652,145.668398 117.725205,145.668398 C115.969408,145.668398 114.550335,147.08709 114.550335,148.834941 C114.550335,150.582793 115.969408,152.001484 117.725205,152.001484 C119.477652,152.001484 120.900074,153.423145 120.900074,155.168027 C120.900074,156.91291 119.477652,158.33457 117.725205,158.33457 C115.969408,158.33457 114.550335,159.753262 114.550335,161.501113 C114.550335,163.248965 115.969408,164.667656 117.725205,164.667656 C119.477652,164.667656 120.900074,166.089316 120.900074,167.834199 C120.900074,169.639199 119.534951,171.000742 117.725205,171.000742 L85.9750186,171.000742 C84.2225709,171.000742 82.8001488,172.419434 82.8001488,174.167285 L82.8001488,180.5 C82.8001488,185.737617 87.0737401,190 92.3251302,190 L98.6752418,190 C103.926632,190 108.200223,185.737617 108.200223,180.5 L108.200223,177.333457 L117.725205,177.333457 C123.068868,177.333457 127.250186,173.159766 127.250186,167.833457 C127.250186,165.401309 126.329314,163.181797 124.817967,161.5 C126.329314,159.818574 127.250186,157.598691 127.250186,155.166543 C127.250186,152.734395 126.329314,150.514883 124.817967,148.833086 C126.329314,147.15166 127.250186,144.931777 127.250186,142.499629 C127.250186,138.449512 124.681418,135.007246 121.093923,133.642363 C121.951171,128.303437 125.364165,126.403437 125.49439,126.330703 C125.64359,126.257969 125.786464,126.172246 125.919665,126.077246 C148.487546,109.997012 159,90.0596289 159,63.3330859 C159,28.4113086 130.51398,0 95.5,0 Z M101.850112,180.5 C101.850112,182.244883 100.42769,183.666543 98.6752418,183.666543 L92.3251302,183.666543 C90.575659,183.666543 89.1502604,182.244883 89.1502604,180.5 L89.1502604,177.333457 L101.850112,177.333457 L101.850112,180.5 Z" id="Shape"></path>
            <path d="M186.857248,60 L171.142752,60 C169.404718,60 168,61.3440759 168,63 C168,64.6559241 169.404718,66 171.142752,66 L186.857248,66 C188.595282,66 190,64.6559241 190,63 C190,61.3440759 188.595282,60 186.857248,60 Z" id="Shape"></path>
        </g>
    </g>
</svg>