<?xml version="1.0" encoding="UTF-8"?>
<svg width="818px" height="208px" viewBox="0 0 818 208" version="1.1" xmlns="http://www.w3.org/2000/svg" xmlns:xlink="http://www.w3.org/1999/xlink">
    <!-- Generator: Sketch 48.2 (47327) - http://www.bohemiancoding.com/sketch -->
    <title>Path 2</title>
    <desc>Created with Sketch.</desc>
    <defs></defs>
    <g id="HMIP-Process" stroke="none" stroke-width="1" fill="none" fill-rule="evenodd" transform="translate(-93.000000, -220.000000)">
        <path d="M95,264.634706 C104.457538,258.289599 110.221974,302.304449 123.793957,312.964816 C137.961513,324.092988 163.027465,329.482384 194.821784,325.947562 C212.050646,324.032096 215.578801,307.490954 214.46254,294.112946 C214.051426,289.185881 207.129735,281.313911 201.804776,285.556193 C191.319036,293.909959 191.046913,313.781526 202.246664,321.680828 C225.766302,338.269475 257.225824,339.670627 284.885527,336.652236 C293.554311,335.706247 302.041692,333.039853 310.125469,329.766087 C318.957198,326.189414 335.876263,318.315554 341.182619,312.964816 C367.815503,286.10918 360.477439,258.28972 355.616873,241.564798 C348.33751,216.516935 315.697189,219.468535 304.450697,234.757017 C266.675091,286.10918 300.885546,393.820183 355.616873,399.652062 C415.099928,405.99026 451.913906,363.742828 481.611713,318.956637 C503.759609,285.556193 555.056165,267.447111 587.326812,285.556193 C632.305099,310.796327 653.053781,385.705136 714.813438,415.845864 C776.573094,445.986592 838.661259,391.621404 902.301847,396.572795 C905.05683,396.787139 907.433949,398.62564 910,399.652062" id="Path-2" stroke="#979797" stroke-width="5"></path>
    </g>
</svg>